<?xml version="1.0" encoding="utf-8" standalone="no"?>
<!DOCTYPE svg PUBLIC "-//W3C//DTD SVG 1.1//EN"
  "http://www.w3.org/Graphics/SVG/1.1/DTD/svg11.dtd">
<svg xmlns:xlink="http://www.w3.org/1999/xlink" width="648pt" height="648pt" viewBox="0 0 648 648" xmlns="http://www.w3.org/2000/svg" version="1.1">
 <metadata>
  <rdf:RDF xmlns:dc="http://purl.org/dc/elements/1.1/" xmlns:cc="http://creativecommons.org/ns#" xmlns:rdf="http://www.w3.org/1999/02/22-rdf-syntax-ns#">
   <cc:Work>
    <dc:type rdf:resource="http://purl.org/dc/dcmitype/StillImage"/>
    <dc:date>2023-05-08T15:51:05.906264</dc:date>
    <dc:format>image/svg+xml</dc:format>
    <dc:creator>
     <cc:Agent>
      <dc:title>Matplotlib v3.5.3, https://matplotlib.org/</dc:title>
     </cc:Agent>
    </dc:creator>
   </cc:Work>
  </rdf:RDF>
 </metadata>
 <defs>
  <style type="text/css">*{stroke-linejoin: round; stroke-linecap: butt}</style>
 </defs>
 <g id="figure_1">
  <g id="patch_1">
   <path d="M 0 648 
L 648 648 
L 648 0 
L 0 0 
z
" style="fill: #ffffff"/>
  </g>
  <g id="axes_1">
   <g id="patch_2">
    <path d="M 81 576.72 
L 583.2 576.72 
L 583.2 77.76 
L 81 77.76 
z
" style="fill: #ffffff"/>
   </g>
   <g id="PolyCollection_1">
    <path d="M -646.64213 576.619631 
L -646.64213 576.72 
L -639.526123 576.72 
L -632.410117 576.72 
L -625.29411 576.72 
L -618.178104 576.72 
L -611.062097 576.72 
L -603.946091 576.72 
L -596.830084 576.72 
L -589.714078 576.72 
L -582.598071 576.72 
L -575.482065 576.72 
L -568.366059 576.72 
L -561.250052 576.72 
L -554.134046 576.72 
L -547.018039 576.72 
L -539.902033 576.72 
L -532.786026 576.72 
L -525.67002 576.72 
L -518.554013 576.72 
L -511.438007 576.72 
L -504.322 576.72 
L -497.205994 576.72 
L -490.089987 576.72 
L -482.973981 576.72 
L -475.857974 576.72 
L -468.741968 576.72 
L -461.625962 576.72 
L -454.509955 576.72 
L -447.393949 576.72 
L -440.277942 576.72 
L -433.161936 576.72 
L -426.045929 576.72 
L -418.929923 576.72 
L -411.813916 576.72 
L -404.69791 576.72 
L -397.581903 576.72 
L -390.465897 576.72 
L -383.34989 576.72 
L -376.233884 576.72 
L -369.117878 576.72 
L -362.001871 576.72 
L -354.885865 576.72 
L -347.769858 576.72 
L -340.653852 576.72 
L -333.537845 576.72 
L -326.421839 576.72 
L -319.305832 576.72 
L -312.189826 576.72 
L -305.073819 576.72 
L -297.957813 576.72 
L -290.841806 576.72 
L -283.7258 576.72 
L -276.609793 576.72 
L -269.493787 576.72 
L -262.377781 576.72 
L -255.261774 576.72 
L -248.145768 576.72 
L -241.029761 576.72 
L -233.913755 576.72 
L -226.797748 576.72 
L -219.681742 576.72 
L -212.565735 576.72 
L -205.449729 576.72 
L -198.333722 576.72 
L -191.217716 576.72 
L -184.101709 576.72 
L -176.985703 576.72 
L -169.869697 576.72 
L -162.75369 576.72 
L -155.637684 576.72 
L -148.521677 576.72 
L -141.405671 576.72 
L -134.289664 576.72 
L -127.173658 576.72 
L -120.057651 576.72 
L -112.941645 576.72 
L -105.825638 576.72 
L -98.709632 576.72 
L -91.593625 576.72 
L -84.477619 576.72 
L -77.361612 576.72 
L -70.245606 576.72 
L -63.1296 576.72 
L -56.013593 576.72 
L -48.897587 576.72 
L -41.78158 576.72 
L -34.665574 576.72 
L -27.549567 576.72 
L -20.433561 576.72 
L -13.317554 576.72 
L -6.201548 576.72 
L 0.914459 576.72 
L 8.030465 576.72 
L 15.146472 576.72 
L 22.262478 576.72 
L 29.378484 576.72 
L 36.494491 576.72 
L 43.610497 576.72 
L 50.726504 576.72 
L 57.84251 576.72 
L 64.958517 576.72 
L 72.074523 576.72 
L 79.19053 576.72 
L 86.306536 576.72 
L 93.422543 576.72 
L 100.538549 576.72 
L 107.654556 576.72 
L 114.770562 576.72 
L 121.886568 576.72 
L 129.002575 576.72 
L 136.118581 576.72 
L 143.234588 576.72 
L 150.350594 576.72 
L 157.466601 576.72 
L 164.582607 576.72 
L 171.698614 576.72 
L 178.81462 576.72 
L 185.930627 576.72 
L 193.046633 576.72 
L 200.16264 576.72 
L 207.278646 576.72 
L 214.394653 576.72 
L 221.510659 576.72 
L 228.626665 576.72 
L 235.742672 576.72 
L 242.858678 576.72 
L 249.974685 576.72 
L 257.090691 576.72 
L 264.206698 576.72 
L 271.322704 576.72 
L 278.438711 576.72 
L 285.554717 576.72 
L 292.670724 576.72 
L 299.78673 576.72 
L 306.902737 576.72 
L 314.018743 576.72 
L 321.134749 576.72 
L 328.250756 576.72 
L 335.366762 576.72 
L 342.482769 576.72 
L 349.598775 576.72 
L 356.714782 576.72 
L 363.830788 576.72 
L 370.946795 576.72 
L 378.062801 576.72 
L 385.178808 576.72 
L 392.294814 576.72 
L 399.410821 576.72 
L 406.526827 576.72 
L 413.642834 576.72 
L 420.75884 576.72 
L 427.874846 576.72 
L 434.990853 576.72 
L 442.106859 576.72 
L 449.222866 576.72 
L 456.338872 576.72 
L 463.454879 576.72 
L 470.570885 576.72 
L 477.686892 576.72 
L 484.802898 576.72 
L 491.918905 576.72 
L 499.034911 576.72 
L 506.150918 576.72 
L 513.266924 576.72 
L 520.38293 576.72 
L 527.498937 576.72 
L 534.614943 576.72 
L 541.73095 576.72 
L 548.846956 576.72 
L 555.962963 576.72 
L 563.078969 576.72 
L 570.194976 576.72 
L 577.310982 576.72 
L 584.426989 576.72 
L 591.542995 576.72 
L 598.659002 576.72 
L 605.775008 576.72 
L 612.891014 576.72 
L 620.007021 576.72 
L 627.123027 576.72 
L 634.239034 576.72 
L 641.35504 576.72 
L 648.471047 576.72 
L 655.587053 576.72 
L 662.70306 576.72 
L 669.819066 576.72 
L 676.935073 576.72 
L 684.051079 576.72 
L 691.167086 576.72 
L 698.283092 576.72 
L 705.399099 576.72 
L 712.515105 576.72 
L 719.631111 576.72 
L 726.747118 576.72 
L 733.863124 576.72 
L 740.979131 576.72 
L 748.095137 576.72 
L 755.211144 576.72 
L 762.32715 576.72 
L 769.443157 576.72 
L 769.443157 576.605154 
L 769.443157 576.605154 
L 762.32715 576.574723 
L 755.211144 576.537228 
L 748.095137 576.4913 
L 740.979131 576.435372 
L 733.863124 576.367667 
L 726.747118 576.286183 
L 719.631111 576.188688 
L 712.515105 576.072713 
L 705.399099 575.935554 
L 698.283092 575.774278 
L 691.167086 575.585729 
L 684.051079 575.366553 
L 676.935073 575.113218 
L 669.819066 574.822041 
L 662.70306 574.489234 
L 655.587053 574.110935 
L 648.471047 573.683262 
L 641.35504 573.202356 
L 634.239034 572.664434 
L 627.123027 572.065834 
L 620.007021 571.403063 
L 612.891014 570.672827 
L 605.775008 569.872066 
L 598.659002 568.997968 
L 591.542995 568.047968 
L 584.426989 567.019735 
L 577.310982 565.91114 
L 570.194976 564.720202 
L 563.078969 563.445021 
L 555.962963 562.083686 
L 548.846956 560.634176 
L 541.73095 559.094244 
L 534.614943 557.461292 
L 527.498937 555.732251 
L 520.38293 553.903458 
L 513.266924 551.970552 
L 506.150918 549.928384 
L 499.034911 547.770965 
L 491.918905 545.491437 
L 484.802898 543.082104 
L 477.686892 540.534509 
L 470.570885 537.839562 
L 463.454879 534.987744 
L 456.338872 531.969362 
L 449.222866 528.774878 
L 442.106859 525.395287 
L 434.990853 521.822559 
L 427.874846 518.050115 
L 420.75884 514.073338 
L 413.642834 509.8901 
L 406.526827 505.501277 
L 399.410821 500.911244 
L 392.294814 496.128323 
L 385.178808 491.165149 
L 378.062801 486.038956 
L 370.946795 480.771735 
L 363.830788 475.390263 
L 356.714782 469.92598 
L 349.598775 464.414704 
L 342.482769 458.896188 
L 335.366762 453.413503 
L 328.250756 448.012275 
L 321.134749 442.739785 
L 314.018743 437.643949 
L 306.902737 432.772219 
L 299.78673 428.170433 
L 292.670724 423.881659 
L 285.554717 419.945067 
L 278.438711 416.394888 
L 271.322704 413.259482 
L 264.206698 410.560571 
L 257.090691 408.312666 
L 249.974685 406.522705 
L 242.858678 405.189934 
L 235.742672 404.306034 
L 228.626665 403.855491 
L 221.510659 403.816192 
L 214.394653 404.160241 
L 207.278646 404.854938 
L 200.16264 405.863908 
L 193.046633 407.148314 
L 185.930627 408.668122 
L 178.81462 410.383343 
L 171.698614 412.255241 
L 164.582607 414.247415 
L 157.466601 416.326755 
L 150.350594 418.46421 
L 143.234588 420.635367 
L 136.118581 422.820797 
L 129.002575 425.0062 
L 121.886568 427.182323 
L 114.770562 429.344679 
L 107.654556 431.493095 
L 100.538549 433.631107 
L 93.422543 435.765251 
L 86.306536 437.904266 
L 79.19053 440.058283 
L 72.074523 442.237997 
L 64.958517 444.453895 
L 57.84251 446.715548 
L 50.726504 449.030999 
L 43.610497 451.406277 
L 36.494491 453.845034 
L 29.378484 456.348321 
L 22.262478 458.914508 
L 15.146472 461.539321 
L 8.030465 464.216012 
L 0.914459 466.935621 
L -6.201548 469.687325 
L -13.317554 472.458848 
L -20.433561 475.236908 
L -27.549567 478.007687 
L -34.665574 480.757285 
L -41.78158 483.472166 
L -48.897587 486.139551 
L -56.013593 488.747769 
L -63.1296 491.286541 
L -70.245606 493.747197 
L -77.361612 496.12282 
L -84.477619 498.408327 
L -91.593625 500.600477 
L -98.709632 502.697817 
L -105.825638 504.700581 
L -112.941645 506.610541 
L -120.057651 508.430824 
L -127.173658 510.165706 
L -134.289664 511.820398 
L -141.405671 513.400821 
L -148.521677 514.913391 
L -155.637684 516.364822 
L -162.75369 517.761936 
L -169.869697 519.111511 
L -176.985703 520.42015 
L -184.101709 521.694172 
L -191.217716 522.939544 
L -198.333722 524.161827 
L -205.449729 525.366151 
L -212.565735 526.557206 
L -219.681742 527.739253 
L -226.797748 528.916139 
L -233.913755 530.09132 
L -241.029761 531.267888 
L -248.145768 532.448592 
L -255.261774 533.635854 
L -262.377781 534.831783 
L -269.493787 536.03817 
L -276.609793 537.256487 
L -283.7258 538.487868 
L -290.841806 539.73309 
L -297.957813 540.992544 
L -305.073819 542.266211 
L -312.189826 543.553635 
L -319.305832 544.853899 
L -326.421839 546.165609 
L -333.537845 547.486889 
L -340.653852 548.815384 
L -347.769858 550.148276 
L -354.885865 551.482311 
L -362.001871 552.813845 
L -369.117878 554.138895 
L -376.233884 555.453204 
L -383.34989 556.752315 
L -390.465897 558.031657 
L -397.581903 559.286625 
L -404.69791 560.512672 
L -411.813916 561.705396 
L -418.929923 562.860622 
L -426.045929 563.974485 
L -433.161936 565.043494 
L -440.277942 566.064597 
L -447.393949 567.035227 
L -454.509955 567.953339 
L -461.625962 568.81743 
L -468.741968 569.626553 
L -475.857974 570.38031 
L -482.973981 571.078837 
L -490.089987 571.722778 
L -497.205994 572.313247 
L -504.322 572.851783 
L -511.438007 573.340301 
L -518.554013 573.781035 
L -525.67002 574.176478 
L -532.786026 574.529329 
L -539.902033 574.842426 
L -547.018039 575.118698 
L -554.134046 575.361107 
L -561.250052 575.572605 
L -568.366059 575.756087 
L -575.482065 575.91436 
L -582.598071 576.050106 
L -589.714078 576.165864 
L -596.830084 576.264009 
L -603.946091 576.346741 
L -611.062097 576.416076 
L -618.178104 576.473846 
L -625.29411 576.5217 
L -632.410117 576.561108 
L -639.526123 576.593372 
L -646.64213 576.619631 
z
" clip-path="url(#p591a018c8f)" style="fill: #1f77b4; fill-opacity: 0.25; stroke: #1f77b4"/>
   </g>
   <g id="PolyCollection_2">
    <path d="M -309.232573 576.57891 
L -309.232573 576.72 
L -303.887078 576.72 
L -298.541583 576.72 
L -293.196088 576.72 
L -287.850592 576.72 
L -282.505097 576.72 
L -277.159602 576.72 
L -271.814107 576.72 
L -266.468612 576.72 
L -261.123116 576.72 
L -255.777621 576.72 
L -250.432126 576.72 
L -245.086631 576.72 
L -239.741135 576.72 
L -234.39564 576.72 
L -229.050145 576.72 
L -223.70465 576.72 
L -218.359155 576.72 
L -213.013659 576.72 
L -207.668164 576.72 
L -202.322669 576.72 
L -196.977174 576.72 
L -191.631679 576.72 
L -186.286183 576.72 
L -180.940688 576.72 
L -175.595193 576.72 
L -170.249698 576.72 
L -164.904203 576.72 
L -159.558707 576.72 
L -154.213212 576.72 
L -148.867717 576.72 
L -143.522222 576.72 
L -138.176727 576.72 
L -132.831231 576.72 
L -127.485736 576.72 
L -122.140241 576.72 
L -116.794746 576.72 
L -111.449251 576.72 
L -106.103755 576.72 
L -100.75826 576.72 
L -95.412765 576.72 
L -90.06727 576.72 
L -84.721775 576.72 
L -79.376279 576.72 
L -74.030784 576.72 
L -68.685289 576.72 
L -63.339794 576.72 
L -57.994299 576.72 
L -52.648803 576.72 
L -47.303308 576.72 
L -41.957813 576.72 
L -36.612318 576.72 
L -31.266822 576.72 
L -25.921327 576.72 
L -20.575832 576.72 
L -15.230337 576.72 
L -9.884842 576.72 
L -4.539346 576.72 
L 0.806149 576.72 
L 6.151644 576.72 
L 11.497139 576.72 
L 16.842634 576.72 
L 22.18813 576.72 
L 27.533625 576.72 
L 32.87912 576.72 
L 38.224615 576.72 
L 43.57011 576.72 
L 48.915606 576.72 
L 54.261101 576.72 
L 59.606596 576.72 
L 64.952091 576.72 
L 70.297586 576.72 
L 75.643082 576.72 
L 80.988577 576.72 
L 86.334072 576.72 
L 91.679567 576.72 
L 97.025062 576.72 
L 102.370558 576.72 
L 107.716053 576.72 
L 113.061548 576.72 
L 118.407043 576.72 
L 123.752538 576.72 
L 129.098034 576.72 
L 134.443529 576.72 
L 139.789024 576.72 
L 145.134519 576.72 
L 150.480014 576.72 
L 155.82551 576.72 
L 161.171005 576.72 
L 166.5165 576.72 
L 171.861995 576.72 
L 177.207491 576.72 
L 182.552986 576.72 
L 187.898481 576.72 
L 193.243976 576.72 
L 198.589471 576.72 
L 203.934967 576.72 
L 209.280462 576.72 
L 214.625957 576.72 
L 219.971452 576.72 
L 225.316947 576.72 
L 230.662443 576.72 
L 236.007938 576.72 
L 241.353433 576.72 
L 246.698928 576.72 
L 252.044423 576.72 
L 257.389919 576.72 
L 262.735414 576.72 
L 268.080909 576.72 
L 273.426404 576.72 
L 278.771899 576.72 
L 284.117395 576.72 
L 289.46289 576.72 
L 294.808385 576.72 
L 300.15388 576.72 
L 305.499375 576.72 
L 310.844871 576.72 
L 316.190366 576.72 
L 321.535861 576.72 
L 326.881356 576.72 
L 332.226851 576.72 
L 337.572347 576.72 
L 342.917842 576.72 
L 348.263337 576.72 
L 353.608832 576.72 
L 358.954327 576.72 
L 364.299823 576.72 
L 369.645318 576.72 
L 374.990813 576.72 
L 380.336308 576.72 
L 385.681803 576.72 
L 391.027299 576.72 
L 396.372794 576.72 
L 401.718289 576.72 
L 407.063784 576.72 
L 412.40928 576.72 
L 417.754775 576.72 
L 423.10027 576.72 
L 428.445765 576.72 
L 433.79126 576.72 
L 439.136756 576.72 
L 444.482251 576.72 
L 449.827746 576.72 
L 455.173241 576.72 
L 460.518736 576.72 
L 465.864232 576.72 
L 471.209727 576.72 
L 476.555222 576.72 
L 481.900717 576.72 
L 487.246212 576.72 
L 492.591708 576.72 
L 497.937203 576.72 
L 503.282698 576.72 
L 508.628193 576.72 
L 513.973688 576.72 
L 519.319184 576.72 
L 524.664679 576.72 
L 530.010174 576.72 
L 535.355669 576.72 
L 540.701164 576.72 
L 546.04666 576.72 
L 551.392155 576.72 
L 556.73765 576.72 
L 562.083145 576.72 
L 567.42864 576.72 
L 572.774136 576.72 
L 578.119631 576.72 
L 583.465126 576.72 
L 588.810621 576.72 
L 594.156116 576.72 
L 599.501612 576.72 
L 604.847107 576.72 
L 610.192602 576.72 
L 615.538097 576.72 
L 620.883593 576.72 
L 626.229088 576.72 
L 631.574583 576.72 
L 636.920078 576.72 
L 642.265573 576.72 
L 647.611069 576.72 
L 652.956564 576.72 
L 658.302059 576.72 
L 663.647554 576.72 
L 668.993049 576.72 
L 674.338545 576.72 
L 679.68404 576.72 
L 685.029535 576.72 
L 690.37503 576.72 
L 695.720525 576.72 
L 701.066021 576.72 
L 706.411516 576.72 
L 711.757011 576.72 
L 717.102506 576.72 
L 722.448001 576.72 
L 727.793497 576.72 
L 733.138992 576.72 
L 738.484487 576.72 
L 743.829982 576.72 
L 749.175477 576.72 
L 754.520973 576.72 
L 754.520973 576.524137 
L 754.520973 576.524137 
L 749.175477 576.470482 
L 743.829982 576.403632 
L 738.484487 576.320751 
L 733.138992 576.218493 
L 727.793497 576.092936 
L 722.448001 575.939508 
L 717.102506 575.75291 
L 711.757011 575.527034 
L 706.411516 575.254881 
L 701.066021 574.928481 
L 695.720525 574.538807 
L 690.37503 574.075697 
L 685.029535 573.527785 
L 679.68404 572.88243 
L 674.338545 572.125672 
L 668.993049 571.242188 
L 663.647554 570.215276 
L 658.302059 569.026864 
L 652.956564 567.657545 
L 647.611069 566.086639 
L 642.265573 564.292307 
L 636.920078 562.251692 
L 631.574583 559.941113 
L 626.229088 557.336315 
L 620.883593 554.412757 
L 615.538097 551.145966 
L 610.192602 547.511941 
L 604.847107 543.487608 
L 599.501612 539.051326 
L 594.156116 534.183434 
L 588.810621 528.866831 
L 583.465126 523.087585 
L 578.119631 516.835549 
L 572.774136 510.104968 
L 567.42864 502.895076 
L 562.083145 495.210638 
L 556.73765 487.062442 
L 551.392155 478.467703 
L 546.04666 469.45037 
L 540.701164 460.041317 
L 535.355669 450.278388 
L 530.010174 440.206312 
L 524.664679 429.876447 
L 519.319184 419.346374 
L 513.973688 408.679328 
L 508.628193 397.943483 
L 503.282698 387.211091 
L 497.937203 376.557511 
L 492.591708 366.060134 
L 487.246212 355.79724 
L 481.900717 345.846816 
L 476.555222 336.28537 
L 471.209727 327.186764 
L 465.864232 318.621113 
L 460.518736 310.653761 
L 455.173241 303.344378 
L 449.827746 296.746188 
L 444.482251 290.905343 
L 439.136756 285.860463 
L 433.79126 281.642328 
L 428.445765 278.273736 
L 423.10027 275.769507 
L 417.754775 274.136619 
L 412.40928 273.37447 
L 407.063784 273.475226 
L 401.718289 274.424253 
L 396.372794 276.200598 
L 391.027299 278.777508 
L 385.681803 282.122958 
L 380.336308 286.200192 
L 374.990813 290.968242 
L 369.645318 296.382441 
L 364.299823 302.394915 
L 358.954327 308.955057 
L 353.608832 316.009987 
L 348.263337 323.505006 
L 342.917842 331.384046 
L 337.572347 339.590127 
L 332.226851 348.065823 
L 326.881356 356.753739 
L 321.535861 365.597005 
L 316.190366 374.539786 
L 310.844871 383.527786 
L 305.499375 392.508768 
L 300.15388 401.433046 
L 294.808385 410.253963 
L 289.46289 418.928328 
L 284.117395 427.416798 
L 278.771899 435.684196 
L 273.426404 443.699754 
L 268.080909 451.43727 
L 262.735414 458.875167 
L 257.389919 465.996459 
L 252.044423 472.788631 
L 246.698928 479.243413 
L 241.353433 485.356486 
L 236.007938 491.127107 
L 230.662443 496.557688 
L 225.316947 501.65332 
L 219.971452 506.421282 
L 214.625957 510.870539 
L 209.280462 515.011246 
L 203.934967 518.85428 
L 198.589471 522.410811 
L 193.243976 525.691926 
L 187.898481 528.708305 
L 182.552986 531.469982 
L 177.207491 533.986166 
L 171.861995 536.265141 
L 166.5165 538.314247 
L 161.171005 540.139922 
L 155.82551 541.747817 
L 150.480014 543.142966 
L 145.134519 544.330003 
L 139.789024 545.313415 
L 134.443529 546.097818 
L 129.098034 546.688247 
L 123.752538 547.090438 
L 118.407043 547.311096 
L 113.061548 547.358137 
L 107.716053 547.24088 
L 102.370558 546.970197 
L 97.025062 546.558599 
L 91.679567 546.020257 
L 86.334072 545.370952 
L 80.988577 544.627959 
L 75.643082 543.809863 
L 70.297586 542.936302 
L 64.952091 542.027674 
L 59.606596 541.104776 
L 54.261101 540.188432 
L 48.915606 539.299083 
L 43.57011 538.456386 
L 38.224615 537.678819 
L 32.87912 536.98331 
L 27.533625 536.384906 
L 22.18813 535.896502 
L 16.842634 535.528619 
L 11.497139 535.289263 
L 6.151644 535.18385 
L 0.806149 535.215212 
L -4.539346 535.383674 
L -9.884842 535.687197 
L -15.230337 536.121583 
L -20.575832 536.680729 
L -25.921327 537.356923 
L -31.266822 538.141155 
L -36.612318 539.023451 
L -41.957813 539.993194 
L -47.303308 541.039436 
L -52.648803 542.151188 
L -57.994299 543.317662 
L -63.339794 544.528488 
L -68.685289 545.773877 
L -74.030784 547.044736 
L -79.376279 548.332741 
L -84.721775 549.63037 
L -90.06727 550.930888 
L -95.412765 552.228314 
L -100.75826 553.517356 
L -106.103755 554.79333 
L -111.449251 556.052077 
L -116.794746 557.28987 
L -122.140241 558.503338 
L -127.485736 559.689388 
L -132.831231 560.84515 
L -138.176727 561.967933 
L -143.522222 563.055204 
L -148.867717 564.104578 
L -154.213212 565.113826 
L -159.558707 566.080892 
L -164.904203 567.003929 
L -170.249698 567.881324 
L -175.595193 568.711742 
L -180.940688 569.494159 
L -186.286183 570.227891 
L -191.631679 570.912617 
L -196.977174 571.548398 
L -202.322669 572.135676 
L -207.668164 572.675269 
L -213.013659 573.168356 
L -218.359155 573.616452 
L -223.70465 574.021367 
L -229.050145 574.385173 
L -234.39564 574.710154 
L -239.741135 574.998757 
L -245.086631 575.253542 
L -250.432126 575.477138 
L -255.777621 575.67219 
L -261.123116 575.84132 
L -266.468612 575.987089 
L -271.814107 576.111964 
L -277.159602 576.218292 
L -282.505097 576.308278 
L -287.850592 576.38397 
L -293.196088 576.447251 
L -298.541583 576.499835 
L -303.887078 576.543262 
L -309.232573 576.57891 
z
" clip-path="url(#p591a018c8f)" style="fill: #ff7f0e; fill-opacity: 0.25; stroke: #ff7f0e"/>
   </g>
   <g id="PolyCollection_3">
    <path d="M -53.024846 576.513223 
L -53.024846 576.72 
L -49.283132 576.72 
L -45.541417 576.72 
L -41.799703 576.72 
L -38.057988 576.72 
L -34.316274 576.72 
L -30.57456 576.72 
L -26.832845 576.72 
L -23.091131 576.72 
L -19.349416 576.72 
L -15.607702 576.72 
L -11.865987 576.72 
L -8.124273 576.72 
L -4.382559 576.72 
L -0.640844 576.72 
L 3.10087 576.72 
L 6.842585 576.72 
L 10.584299 576.72 
L 14.326014 576.72 
L 18.067728 576.72 
L 21.809442 576.72 
L 25.551157 576.72 
L 29.292871 576.72 
L 33.034586 576.72 
L 36.7763 576.72 
L 40.518015 576.72 
L 44.259729 576.72 
L 48.001443 576.72 
L 51.743158 576.72 
L 55.484872 576.72 
L 59.226587 576.72 
L 62.968301 576.72 
L 66.710016 576.72 
L 70.45173 576.72 
L 74.193445 576.72 
L 77.935159 576.72 
L 81.676873 576.72 
L 85.418588 576.72 
L 89.160302 576.72 
L 92.902017 576.72 
L 96.643731 576.72 
L 100.385446 576.72 
L 104.12716 576.72 
L 107.868874 576.72 
L 111.610589 576.72 
L 115.352303 576.72 
L 119.094018 576.72 
L 122.835732 576.72 
L 126.577447 576.72 
L 130.319161 576.72 
L 134.060875 576.72 
L 137.80259 576.72 
L 141.544304 576.72 
L 145.286019 576.72 
L 149.027733 576.72 
L 152.769448 576.72 
L 156.511162 576.72 
L 160.252876 576.72 
L 163.994591 576.72 
L 167.736305 576.72 
L 171.47802 576.72 
L 175.219734 576.72 
L 178.961449 576.72 
L 182.703163 576.72 
L 186.444878 576.72 
L 190.186592 576.72 
L 193.928306 576.72 
L 197.670021 576.72 
L 201.411735 576.72 
L 205.15345 576.72 
L 208.895164 576.72 
L 212.636879 576.72 
L 216.378593 576.72 
L 220.120307 576.72 
L 223.862022 576.72 
L 227.603736 576.72 
L 231.345451 576.72 
L 235.087165 576.72 
L 238.82888 576.72 
L 242.570594 576.72 
L 246.312308 576.72 
L 250.054023 576.72 
L 253.795737 576.72 
L 257.537452 576.72 
L 261.279166 576.72 
L 265.020881 576.72 
L 268.762595 576.72 
L 272.504309 576.72 
L 276.246024 576.72 
L 279.987738 576.72 
L 283.729453 576.72 
L 287.471167 576.72 
L 291.212882 576.72 
L 294.954596 576.72 
L 298.69631 576.72 
L 302.438025 576.72 
L 306.179739 576.72 
L 309.921454 576.72 
L 313.663168 576.72 
L 317.404883 576.72 
L 321.146597 576.72 
L 324.888312 576.72 
L 328.630026 576.72 
L 332.37174 576.72 
L 336.113455 576.72 
L 339.855169 576.72 
L 343.596884 576.72 
L 347.338598 576.72 
L 351.080313 576.72 
L 354.822027 576.72 
L 358.563741 576.72 
L 362.305456 576.72 
L 366.04717 576.72 
L 369.788885 576.72 
L 373.530599 576.72 
L 377.272314 576.72 
L 381.014028 576.72 
L 384.755742 576.72 
L 388.497457 576.72 
L 392.239171 576.72 
L 395.980886 576.72 
L 399.7226 576.72 
L 403.464315 576.72 
L 407.206029 576.72 
L 410.947743 576.72 
L 414.689458 576.72 
L 418.431172 576.72 
L 422.172887 576.72 
L 425.914601 576.72 
L 429.656316 576.72 
L 433.39803 576.72 
L 437.139745 576.72 
L 440.881459 576.72 
L 444.623173 576.72 
L 448.364888 576.72 
L 452.106602 576.72 
L 455.848317 576.72 
L 459.590031 576.72 
L 463.331746 576.72 
L 467.07346 576.72 
L 470.815174 576.72 
L 474.556889 576.72 
L 478.298603 576.72 
L 482.040318 576.72 
L 485.782032 576.72 
L 489.523747 576.72 
L 493.265461 576.72 
L 497.007175 576.72 
L 500.74889 576.72 
L 504.490604 576.72 
L 508.232319 576.72 
L 511.974033 576.72 
L 515.715748 576.72 
L 519.457462 576.72 
L 523.199176 576.72 
L 526.940891 576.72 
L 530.682605 576.72 
L 534.42432 576.72 
L 538.166034 576.72 
L 541.907749 576.72 
L 545.649463 576.72 
L 549.391178 576.72 
L 553.132892 576.72 
L 556.874606 576.72 
L 560.616321 576.72 
L 564.358035 576.72 
L 568.09975 576.72 
L 571.841464 576.72 
L 575.583179 576.72 
L 579.324893 576.72 
L 583.066607 576.72 
L 586.808322 576.72 
L 590.550036 576.72 
L 594.291751 576.72 
L 598.033465 576.72 
L 601.77518 576.72 
L 605.516894 576.72 
L 609.258608 576.72 
L 613.000323 576.72 
L 616.742037 576.72 
L 620.483752 576.72 
L 624.225466 576.72 
L 627.967181 576.72 
L 631.708895 576.72 
L 635.450609 576.72 
L 639.192324 576.72 
L 642.934038 576.72 
L 646.675753 576.72 
L 650.417467 576.72 
L 654.159182 576.72 
L 657.900896 576.72 
L 661.64261 576.72 
L 665.384325 576.72 
L 669.126039 576.72 
L 672.867754 576.72 
L 676.609468 576.72 
L 680.351183 576.72 
L 684.092897 576.72 
L 687.834612 576.72 
L 691.576326 576.72 
L 691.576326 576.353961 
L 691.576326 576.353961 
L 687.834612 576.250432 
L 684.092897 576.120902 
L 680.351183 575.95978 
L 676.609468 575.760523 
L 672.867754 575.515529 
L 669.126039 575.21603 
L 665.384325 574.851997 
L 661.64261 574.412047 
L 657.900896 573.883363 
L 654.159182 573.251635 
L 650.417467 572.501015 
L 646.675753 571.6141 
L 642.934038 570.571953 
L 639.192324 569.354142 
L 635.450609 567.938831 
L 631.708895 566.302906 
L 627.967181 564.422137 
L 624.225466 562.271394 
L 620.483752 559.824896 
L 616.742037 557.056498 
L 613.000323 553.940024 
L 609.258608 550.449622 
L 605.516894 546.560149 
L 601.77518 542.247571 
L 598.033465 537.489377 
L 594.291751 532.264997 
L 590.550036 526.556208 
L 586.808322 520.347537 
L 583.066607 513.626627 
L 579.324893 506.384595 
L 575.583179 498.616339 
L 571.841464 490.320819 
L 568.09975 481.501293 
L 564.358035 472.165506 
L 560.616321 462.325844 
L 556.874606 451.999438 
L 553.132892 441.20823 
L 549.391178 429.97899 
L 545.649463 418.343304 
L 541.907749 406.337513 
L 538.166034 394.002617 
L 534.42432 381.384143 
L 530.682605 368.531966 
L 526.940891 355.500092 
L 523.199176 342.346396 
L 519.457462 329.132312 
L 515.715748 315.92247 
L 511.974033 302.784283 
L 508.232319 289.787474 
L 504.490604 277.003549 
L 500.74889 264.505216 
L 497.007175 252.365749 
L 493.265461 240.658308 
L 489.523747 229.455214 
L 485.782032 218.827203 
L 482.040318 208.842658 
L 478.298603 199.566835 
L 474.556889 191.061113 
L 470.815174 183.382258 
L 467.07346 176.581743 
L 463.331746 170.70512 
L 459.590031 165.791468 
L 455.848317 161.872928 
L 452.106602 158.974328 
L 448.364888 157.112916 
L 444.623173 156.298184 
L 440.881459 156.531813 
L 437.139745 157.807709 
L 433.39803 160.112136 
L 429.656316 163.423944 
L 425.914601 167.714876 
L 422.172887 172.949942 
L 418.431172 179.087864 
L 414.689458 186.08156 
L 410.947743 193.878681 
L 407.206029 202.422179 
L 403.464315 211.650897 
L 399.7226 221.500188 
L 395.980886 231.902543 
L 392.239171 242.788236 
L 388.497457 254.085975 
L 384.755742 265.723558 
L 381.014028 277.628528 
L 377.272314 289.728834 
L 373.530599 301.953472 
L 369.788885 314.233126 
L 366.04717 326.500778 
L 362.305456 338.6923 
L 358.563741 350.747001 
L 354.822027 362.608141 
L 351.080313 374.223381 
L 347.338598 385.545178 
L 343.596884 396.531104 
L 339.855169 407.144098 
L 336.113455 417.352625 
L 332.37174 427.130756 
L 328.630026 436.458164 
L 324.888312 445.320023 
L 321.146597 453.706834 
L 317.404883 461.614169 
L 313.663168 469.042337 
L 309.921454 475.995998 
L 306.179739 482.48371 
L 302.438025 488.517443 
L 298.69631 494.112058 
L 294.954596 499.284768 
L 291.212882 504.054594 
L 287.471167 508.441825 
L 283.729453 512.467505 
L 279.987738 516.152938 
L 276.246024 519.519251 
L 272.504309 522.586988 
L 268.762595 525.375782 
L 265.020881 527.904079 
L 261.279166 530.188936 
L 257.537452 532.245889 
L 253.795737 534.088896 
L 250.054023 535.730339 
L 246.312308 537.181104 
L 242.570594 538.450707 
L 238.82888 539.547473 
L 235.087165 540.478757 
L 231.345451 541.251185 
L 227.603736 541.870921 
L 223.862022 542.343928 
L 220.120307 542.676222 
L 216.378593 542.874115 
L 212.636879 542.944415 
L 208.895164 542.894605 
L 205.15345 542.732964 
L 201.411735 542.468653 
L 197.670021 542.11175 
L 193.928306 541.673237 
L 190.186592 541.164944 
L 186.444878 540.59946 
L 182.703163 539.990001 
L 178.961449 539.350265 
L 175.219734 538.694256 
L 171.47802 538.036108 
L 167.736305 537.389903 
L 163.994591 536.769481 
L 160.252876 536.188276 
L 156.511162 535.659144 
L 152.769448 535.19422 
L 149.027733 534.80478 
L 145.286019 534.501124 
L 141.544304 534.292472 
L 137.80259 534.186877 
L 134.060875 534.19115 
L 130.319161 534.310793 
L 126.577447 534.549952 
L 122.835732 534.911371 
L 119.094018 535.396365 
L 115.352303 536.004801 
L 111.610589 536.735088 
L 107.868874 537.584193 
L 104.12716 538.54766 
L 100.385446 539.619659 
L 96.643731 540.79305 
L 92.902017 542.059469 
L 89.160302 543.409439 
L 85.418588 544.832506 
L 81.676873 546.31739 
L 77.935159 547.852163 
L 74.193445 549.424441 
L 70.45173 551.021586 
L 66.710016 552.630915 
L 62.968301 554.239921 
L 59.226587 555.836473 
L 55.484872 557.409019 
L 51.743158 558.94677 
L 48.001443 560.43986 
L 44.259729 561.879481 
L 40.518015 563.257991 
L 36.7763 564.568992 
L 33.034586 565.807369 
L 29.292871 566.969304 
L 25.551157 568.052251 
L 21.809442 569.054894 
L 18.067728 569.977064 
L 14.326014 570.819649 
L 10.584299 571.584477 
L 6.842585 572.274193 
L 3.10087 572.892125 
L -0.640844 573.442149 
L -4.382559 573.928554 
L -8.124273 574.355919 
L -11.865987 574.728985 
L -15.607702 575.052551 
L -19.349416 575.331379 
L -23.091131 575.570111 
L -26.832845 575.7732 
L -30.57456 575.944861 
L -34.316274 576.089027 
L -38.057988 576.209327 
L -41.799703 576.309072 
L -45.541417 576.391246 
L -49.283132 576.458511 
L -53.024846 576.513223 
z
" clip-path="url(#p591a018c8f)" style="fill: #2ca02c; fill-opacity: 0.25; stroke: #2ca02c"/>
   </g>
   <g id="PolyCollection_4">
    <defs>
     <path id="m85463af26b" d="M 102.042823 -71.529112 
L 102.042823 -71.28 
L 104.991142 -71.28 
L 107.939461 -71.28 
L 110.88778 -71.28 
L 113.836099 -71.28 
L 116.784418 -71.28 
L 119.732737 -71.28 
L 122.681056 -71.28 
L 125.629375 -71.28 
L 128.577695 -71.28 
L 131.526014 -71.28 
L 134.474333 -71.28 
L 137.422652 -71.28 
L 140.370971 -71.28 
L 143.31929 -71.28 
L 146.267609 -71.28 
L 149.215928 -71.28 
L 152.164247 -71.28 
L 155.112566 -71.28 
L 158.060885 -71.28 
L 161.009204 -71.28 
L 163.957524 -71.28 
L 166.905843 -71.28 
L 169.854162 -71.28 
L 172.802481 -71.28 
L 175.7508 -71.28 
L 178.699119 -71.28 
L 181.647438 -71.28 
L 184.595757 -71.28 
L 187.544076 -71.28 
L 190.492395 -71.28 
L 193.440714 -71.28 
L 196.389033 -71.28 
L 199.337352 -71.28 
L 202.285672 -71.28 
L 205.233991 -71.28 
L 208.18231 -71.28 
L 211.130629 -71.28 
L 214.078948 -71.28 
L 217.027267 -71.28 
L 219.975586 -71.28 
L 222.923905 -71.28 
L 225.872224 -71.28 
L 228.820543 -71.28 
L 231.768862 -71.28 
L 234.717181 -71.28 
L 237.6655 -71.28 
L 240.61382 -71.28 
L 243.562139 -71.28 
L 246.510458 -71.28 
L 249.458777 -71.28 
L 252.407096 -71.28 
L 255.355415 -71.28 
L 258.303734 -71.28 
L 261.252053 -71.28 
L 264.200372 -71.28 
L 267.148691 -71.28 
L 270.09701 -71.28 
L 273.045329 -71.28 
L 275.993648 -71.28 
L 278.941968 -71.28 
L 281.890287 -71.28 
L 284.838606 -71.28 
L 287.786925 -71.28 
L 290.735244 -71.28 
L 293.683563 -71.28 
L 296.631882 -71.28 
L 299.580201 -71.28 
L 302.52852 -71.28 
L 305.476839 -71.28 
L 308.425158 -71.28 
L 311.373477 -71.28 
L 314.321797 -71.28 
L 317.270116 -71.28 
L 320.218435 -71.28 
L 323.166754 -71.28 
L 326.115073 -71.28 
L 329.063392 -71.28 
L 332.011711 -71.28 
L 334.96003 -71.28 
L 337.908349 -71.28 
L 340.856668 -71.28 
L 343.804987 -71.28 
L 346.753306 -71.28 
L 349.701625 -71.28 
L 352.649945 -71.28 
L 355.598264 -71.28 
L 358.546583 -71.28 
L 361.494902 -71.28 
L 364.443221 -71.28 
L 367.39154 -71.28 
L 370.339859 -71.28 
L 373.288178 -71.28 
L 376.236497 -71.28 
L 379.184816 -71.28 
L 382.133135 -71.28 
L 385.081454 -71.28 
L 388.029773 -71.28 
L 390.978093 -71.28 
L 393.926412 -71.28 
L 396.874731 -71.28 
L 399.82305 -71.28 
L 402.771369 -71.28 
L 405.719688 -71.28 
L 408.668007 -71.28 
L 411.616326 -71.28 
L 414.564645 -71.28 
L 417.512964 -71.28 
L 420.461283 -71.28 
L 423.409602 -71.28 
L 426.357922 -71.28 
L 429.306241 -71.28 
L 432.25456 -71.28 
L 435.202879 -71.28 
L 438.151198 -71.28 
L 441.099517 -71.28 
L 444.047836 -71.28 
L 446.996155 -71.28 
L 449.944474 -71.28 
L 452.892793 -71.28 
L 455.841112 -71.28 
L 458.789431 -71.28 
L 461.73775 -71.28 
L 464.68607 -71.28 
L 467.634389 -71.28 
L 470.582708 -71.28 
L 473.531027 -71.28 
L 476.479346 -71.28 
L 479.427665 -71.28 
L 482.375984 -71.28 
L 485.324303 -71.28 
L 488.272622 -71.28 
L 491.220941 -71.28 
L 494.16926 -71.28 
L 497.117579 -71.28 
L 500.065898 -71.28 
L 503.014218 -71.28 
L 505.962537 -71.28 
L 508.910856 -71.28 
L 511.859175 -71.28 
L 514.807494 -71.28 
L 517.755813 -71.28 
L 520.704132 -71.28 
L 523.652451 -71.28 
L 526.60077 -71.28 
L 529.549089 -71.28 
L 532.497408 -71.28 
L 535.445727 -71.28 
L 538.394046 -71.28 
L 541.342366 -71.28 
L 544.290685 -71.28 
L 547.239004 -71.28 
L 550.187323 -71.28 
L 553.135642 -71.28 
L 556.083961 -71.28 
L 559.03228 -71.28 
L 561.980599 -71.28 
L 564.928918 -71.28 
L 567.877237 -71.28 
L 570.825556 -71.28 
L 573.773875 -71.28 
L 576.722195 -71.28 
L 579.670514 -71.28 
L 582.618833 -71.28 
L 585.567152 -71.28 
L 588.515471 -71.28 
L 591.46379 -71.28 
L 594.412109 -71.28 
L 597.360428 -71.28 
L 600.308747 -71.28 
L 603.257066 -71.28 
L 606.205385 -71.28 
L 609.153704 -71.28 
L 612.102023 -71.28 
L 615.050343 -71.28 
L 617.998662 -71.28 
L 620.946981 -71.28 
L 623.8953 -71.28 
L 626.843619 -71.28 
L 629.791938 -71.28 
L 632.740257 -71.28 
L 635.688576 -71.28 
L 638.636895 -71.28 
L 641.585214 -71.28 
L 644.533533 -71.28 
L 647.481852 -71.28 
L 650.430171 -71.28 
L 653.378491 -71.28 
L 656.32681 -71.28 
L 659.275129 -71.28 
L 662.223448 -71.28 
L 665.171767 -71.28 
L 668.120086 -71.28 
L 671.068405 -71.28 
L 674.016724 -71.28 
L 676.965043 -71.28 
L 679.913362 -71.28 
L 682.861681 -71.28 
L 685.81 -71.28 
L 688.758319 -71.28 
L 688.758319 -72.545167 
L 688.758319 -72.545167 
L 685.81 -72.92503 
L 682.861681 -73.403518 
L 679.913362 -74.001444 
L 676.965043 -74.742666 
L 674.016724 -75.654179 
L 671.068405 -76.766113 
L 668.120086 -78.11162 
L 665.171767 -79.726621 
L 662.223448 -81.649391 
L 659.275129 -83.919977 
L 656.32681 -86.579432 
L 653.378491 -89.668875 
L 650.430171 -93.228379 
L 647.481852 -97.295711 
L 644.533533 -101.904974 
L 641.585214 -107.085174 
L 638.636895 -112.858799 
L 635.688576 -119.240462 
L 632.740257 -126.235689 
L 629.791938 -133.839937 
L 626.843619 -142.037911 
L 623.8953 -150.803255 
L 620.946981 -160.098665 
L 617.998662 -169.876471 
L 615.050343 -180.079694 
L 612.102023 -190.643554 
L 609.153704 -201.49741 
L 606.205385 -212.567029 
L 603.257066 -223.777105 
L 600.308747 -235.053897 
L 597.360428 -246.327849 
L 594.412109 -257.536044 
L 591.46379 -268.624355 
L 588.515471 -279.549161 
L 585.567152 -290.278511 
L 582.618833 -300.792671 
L 579.670514 -311.084013 
L 576.722195 -321.156235 
L 573.773875 -331.022976 
L 570.825556 -340.705901 
L 567.877237 -350.23238 
L 564.928918 -359.632911 
L 561.980599 -368.938454 
L 559.03228 -378.17784 
L 556.083961 -387.375425 
L 553.135642 -396.54912 
L 550.187323 -405.708913 
L 547.239004 -414.855953 
L 544.290685 -423.982211 
L 541.342366 -433.07072 
L 538.394046 -442.096301 
L 535.445727 -451.026709 
L 532.497408 -459.824039 
L 529.549089 -468.446277 
L 526.60077 -476.848832 
L 523.652451 -484.98592 
L 520.704132 -492.811687 
L 517.755813 -500.280987 
L 514.807494 -507.349783 
L 511.859175 -513.975151 
L 508.910856 -520.114965 
L 505.962537 -525.727311 
L 503.014218 -530.769775 
L 500.065898 -535.198711 
L 497.117579 -538.968665 
L 494.16926 -542.032052 
L 491.220941 -544.339235 
L 488.272622 -545.839076 
L 485.324303 -546.48 
L 482.375984 -546.211588 
L 479.427665 -544.986624 
L 476.479346 -542.763521 
L 473.531027 -539.50897 
L 470.582708 -535.200654 
L 467.634389 -529.829833 
L 464.68607 -523.403602 
L 461.73775 -515.946647 
L 458.789431 -507.502331 
L 455.841112 -498.132987 
L 452.892793 -487.919346 
L 449.944474 -476.959071 
L 446.996155 -465.364439 
L 444.047836 -453.25924 
L 441.099517 -440.775061 
L 438.151198 -428.047107 
L 435.202879 -415.209781 
L 432.25456 -402.392252 
L 429.306241 -389.714228 
L 426.357922 -377.282157 
L 423.409602 -365.18605 
L 420.461283 -353.497067 
L 417.512964 -342.265987 
L 414.564645 -331.522615 
L 411.616326 -321.276134 
L 408.668007 -311.516353 
L 405.719688 -302.215767 
L 402.771369 -293.33229 
L 399.82305 -284.812502 
L 396.874731 -276.595231 
L 393.926412 -268.615269 
L 390.978093 -260.807055 
L 388.029773 -253.108117 
L 385.081454 -245.462148 
L 382.133135 -237.82157 
L 379.184816 -230.14951 
L 376.236497 -222.421108 
L 373.288178 -214.624171 
L 370.339859 -206.759158 
L 367.39154 -198.838565 
L 364.443221 -190.885781 
L 361.494902 -182.933509 
L 358.546583 -175.021862 
L 355.598264 -167.196266 
L 352.649945 -159.50526 
L 349.701625 -151.998336 
L 346.753306 -144.723898 
L 343.804987 -137.727436 
L 340.856668 -131.049965 
L 337.908349 -124.726799 
L 334.96003 -118.786662 
L 332.011711 -113.251151 
L 329.063392 -108.134543 
L 326.115073 -103.443901 
L 323.166754 -99.179467 
L 320.218435 -95.335265 
L 317.270116 -91.899884 
L 314.321797 -88.857378 
L 311.373477 -86.188225 
L 308.425158 -83.87031 
L 305.476839 -81.879874 
L 302.52852 -80.192408 
L 299.580201 -78.783446 
L 296.631882 -77.629246 
L 293.683563 -76.707351 
L 290.735244 -75.997003 
L 287.786925 -75.479426 
L 284.838606 -75.137977 
L 281.890287 -74.95817 
L 278.941968 -74.927583 
L 275.993648 -75.035666 
L 273.045329 -75.27347 
L 270.09701 -75.633296 
L 267.148691 -76.10831 
L 264.200372 -76.692117 
L 261.252053 -77.378327 
L 258.303734 -78.160139 
L 255.355415 -79.029948 
L 252.407096 -79.979 
L 249.458777 -80.997119 
L 246.510458 -82.072516 
L 243.562139 -83.191684 
L 240.61382 -84.339409 
L 237.6655 -85.49888 
L 234.717181 -86.651914 
L 231.768862 -87.779276 
L 228.820543 -88.8611 
L 225.872224 -89.877378 
L 222.923905 -90.808507 
L 219.975586 -91.635869 
L 217.027267 -92.342409 
L 214.078948 -92.913196 
L 211.130629 -93.335921 
L 208.18231 -93.601331 
L 205.233991 -93.70355 
L 202.285672 -93.640287 
L 199.337352 -93.412918 
L 196.389033 -93.026431 
L 193.440714 -92.489243 
L 190.492395 -91.812889 
L 187.544076 -91.011613 
L 184.595757 -90.101868 
L 181.647438 -89.101753 
L 178.699119 -88.030418 
L 175.7508 -86.90746 
L 172.802481 -85.752337 
L 169.854162 -84.583823 
L 166.905843 -83.419526 
L 163.957524 -82.275488 
L 161.009204 -81.165868 
L 158.060885 -80.102722 
L 155.112566 -79.09588 
L 152.164247 -78.15291 
L 149.215928 -77.279167 
L 146.267609 -76.47791 
L 143.31929 -75.750478 
L 140.370971 -75.096513 
L 137.422652 -74.514201 
L 134.474333 -74.000538 
L 131.526014 -73.551591 
L 128.577695 -73.162751 
L 125.629375 -72.82897 
L 122.681056 -72.544972 
L 119.732737 -72.30543 
L 116.784418 -72.105123 
L 113.836099 -71.939051 
L 110.88778 -71.802525 
L 107.939461 -71.691227 
L 104.991142 -71.601251 
L 102.042823 -71.529112 
z
" style="stroke: #d62728"/>
    </defs>
    <g clip-path="url(#p591a018c8f)">
     <use xlink:href="#m85463af26b" x="0" y="648" style="fill: #d62728; fill-opacity: 0.25; stroke: #d62728"/>
    </g>
   </g>
   <g id="matplotlib.axis_1">
    <g id="xtick_1">
     <g id="line2d_1">
      <defs>
       <path id="m8c74e860bf" d="M 0 0 
L 0 3.5 
" style="stroke: #000000; stroke-width: 0.8"/>
      </defs>
      <g>
       <use xlink:href="#m8c74e860bf" x="81" y="576.72" style="stroke: #000000; stroke-width: 0.8"/>
      </g>
     </g>
     <g id="text_1">
      <!-- 0.0 -->
      <g transform="translate(66.687187 597.397187)scale(0.18 -0.18)">
       <defs>
        <path id="DejaVuSans-30" d="M 2034 4250 
Q 1547 4250 1301 3770 
Q 1056 3291 1056 2328 
Q 1056 1369 1301 889 
Q 1547 409 2034 409 
Q 2525 409 2770 889 
Q 3016 1369 3016 2328 
Q 3016 3291 2770 3770 
Q 2525 4250 2034 4250 
z
M 2034 4750 
Q 2819 4750 3233 4129 
Q 3647 3509 3647 2328 
Q 3647 1150 3233 529 
Q 2819 -91 2034 -91 
Q 1250 -91 836 529 
Q 422 1150 422 2328 
Q 422 3509 836 4129 
Q 1250 4750 2034 4750 
z
" transform="scale(0.015625)"/>
        <path id="DejaVuSans-2e" d="M 684 794 
L 1344 794 
L 1344 0 
L 684 0 
L 684 794 
z
" transform="scale(0.015625)"/>
       </defs>
       <use xlink:href="#DejaVuSans-30"/>
       <use xlink:href="#DejaVuSans-2e" x="63.623047"/>
       <use xlink:href="#DejaVuSans-30" x="95.410156"/>
      </g>
     </g>
    </g>
    <g id="xtick_2">
     <g id="line2d_2">
      <g>
       <use xlink:href="#m8c74e860bf" x="332.1" y="576.72" style="stroke: #000000; stroke-width: 0.8"/>
      </g>
     </g>
     <g id="text_2">
      <!-- 0.5 -->
      <g transform="translate(317.787188 597.397187)scale(0.18 -0.18)">
       <defs>
        <path id="DejaVuSans-35" d="M 691 4666 
L 3169 4666 
L 3169 4134 
L 1269 4134 
L 1269 2991 
Q 1406 3038 1543 3061 
Q 1681 3084 1819 3084 
Q 2600 3084 3056 2656 
Q 3513 2228 3513 1497 
Q 3513 744 3044 326 
Q 2575 -91 1722 -91 
Q 1428 -91 1123 -41 
Q 819 9 494 109 
L 494 744 
Q 775 591 1075 516 
Q 1375 441 1709 441 
Q 2250 441 2565 725 
Q 2881 1009 2881 1497 
Q 2881 1984 2565 2268 
Q 2250 2553 1709 2553 
Q 1456 2553 1204 2497 
Q 953 2441 691 2322 
L 691 4666 
z
" transform="scale(0.015625)"/>
       </defs>
       <use xlink:href="#DejaVuSans-30"/>
       <use xlink:href="#DejaVuSans-2e" x="63.623047"/>
       <use xlink:href="#DejaVuSans-35" x="95.410156"/>
      </g>
     </g>
    </g>
    <g id="xtick_3">
     <g id="line2d_3">
      <g>
       <use xlink:href="#m8c74e860bf" x="583.2" y="576.72" style="stroke: #000000; stroke-width: 0.8"/>
      </g>
     </g>
     <g id="text_3">
      <!-- 1.0 -->
      <g transform="translate(568.887188 597.397187)scale(0.18 -0.18)">
       <defs>
        <path id="DejaVuSans-31" d="M 794 531 
L 1825 531 
L 1825 4091 
L 703 3866 
L 703 4441 
L 1819 4666 
L 2450 4666 
L 2450 531 
L 3481 531 
L 3481 0 
L 794 0 
L 794 531 
z
" transform="scale(0.015625)"/>
       </defs>
       <use xlink:href="#DejaVuSans-31"/>
       <use xlink:href="#DejaVuSans-2e" x="63.623047"/>
       <use xlink:href="#DejaVuSans-30" x="95.410156"/>
      </g>
     </g>
    </g>
    <g id="text_4">
     <!-- Attention Value -->
     <g transform="translate(239.949375 623.376875)scale(0.24 -0.24)">
      <defs>
       <path id="DejaVuSans-41" d="M 2188 4044 
L 1331 1722 
L 3047 1722 
L 2188 4044 
z
M 1831 4666 
L 2547 4666 
L 4325 0 
L 3669 0 
L 3244 1197 
L 1141 1197 
L 716 0 
L 50 0 
L 1831 4666 
z
" transform="scale(0.015625)"/>
       <path id="DejaVuSans-74" d="M 1172 4494 
L 1172 3500 
L 2356 3500 
L 2356 3053 
L 1172 3053 
L 1172 1153 
Q 1172 725 1289 603 
Q 1406 481 1766 481 
L 2356 481 
L 2356 0 
L 1766 0 
Q 1100 0 847 248 
Q 594 497 594 1153 
L 594 3053 
L 172 3053 
L 172 3500 
L 594 3500 
L 594 4494 
L 1172 4494 
z
" transform="scale(0.015625)"/>
       <path id="DejaVuSans-65" d="M 3597 1894 
L 3597 1613 
L 953 1613 
Q 991 1019 1311 708 
Q 1631 397 2203 397 
Q 2534 397 2845 478 
Q 3156 559 3463 722 
L 3463 178 
Q 3153 47 2828 -22 
Q 2503 -91 2169 -91 
Q 1331 -91 842 396 
Q 353 884 353 1716 
Q 353 2575 817 3079 
Q 1281 3584 2069 3584 
Q 2775 3584 3186 3129 
Q 3597 2675 3597 1894 
z
M 3022 2063 
Q 3016 2534 2758 2815 
Q 2500 3097 2075 3097 
Q 1594 3097 1305 2825 
Q 1016 2553 972 2059 
L 3022 2063 
z
" transform="scale(0.015625)"/>
       <path id="DejaVuSans-6e" d="M 3513 2113 
L 3513 0 
L 2938 0 
L 2938 2094 
Q 2938 2591 2744 2837 
Q 2550 3084 2163 3084 
Q 1697 3084 1428 2787 
Q 1159 2491 1159 1978 
L 1159 0 
L 581 0 
L 581 3500 
L 1159 3500 
L 1159 2956 
Q 1366 3272 1645 3428 
Q 1925 3584 2291 3584 
Q 2894 3584 3203 3211 
Q 3513 2838 3513 2113 
z
" transform="scale(0.015625)"/>
       <path id="DejaVuSans-69" d="M 603 3500 
L 1178 3500 
L 1178 0 
L 603 0 
L 603 3500 
z
M 603 4863 
L 1178 4863 
L 1178 4134 
L 603 4134 
L 603 4863 
z
" transform="scale(0.015625)"/>
       <path id="DejaVuSans-6f" d="M 1959 3097 
Q 1497 3097 1228 2736 
Q 959 2375 959 1747 
Q 959 1119 1226 758 
Q 1494 397 1959 397 
Q 2419 397 2687 759 
Q 2956 1122 2956 1747 
Q 2956 2369 2687 2733 
Q 2419 3097 1959 3097 
z
M 1959 3584 
Q 2709 3584 3137 3096 
Q 3566 2609 3566 1747 
Q 3566 888 3137 398 
Q 2709 -91 1959 -91 
Q 1206 -91 779 398 
Q 353 888 353 1747 
Q 353 2609 779 3096 
Q 1206 3584 1959 3584 
z
" transform="scale(0.015625)"/>
       <path id="DejaVuSans-20" transform="scale(0.015625)"/>
       <path id="DejaVuSans-56" d="M 1831 0 
L 50 4666 
L 709 4666 
L 2188 738 
L 3669 4666 
L 4325 4666 
L 2547 0 
L 1831 0 
z
" transform="scale(0.015625)"/>
       <path id="DejaVuSans-61" d="M 2194 1759 
Q 1497 1759 1228 1600 
Q 959 1441 959 1056 
Q 959 750 1161 570 
Q 1363 391 1709 391 
Q 2188 391 2477 730 
Q 2766 1069 2766 1631 
L 2766 1759 
L 2194 1759 
z
M 3341 1997 
L 3341 0 
L 2766 0 
L 2766 531 
Q 2569 213 2275 61 
Q 1981 -91 1556 -91 
Q 1019 -91 701 211 
Q 384 513 384 1019 
Q 384 1609 779 1909 
Q 1175 2209 1959 2209 
L 2766 2209 
L 2766 2266 
Q 2766 2663 2505 2880 
Q 2244 3097 1772 3097 
Q 1472 3097 1187 3025 
Q 903 2953 641 2809 
L 641 3341 
Q 956 3463 1253 3523 
Q 1550 3584 1831 3584 
Q 2591 3584 2966 3190 
Q 3341 2797 3341 1997 
z
" transform="scale(0.015625)"/>
       <path id="DejaVuSans-6c" d="M 603 4863 
L 1178 4863 
L 1178 0 
L 603 0 
L 603 4863 
z
" transform="scale(0.015625)"/>
       <path id="DejaVuSans-75" d="M 544 1381 
L 544 3500 
L 1119 3500 
L 1119 1403 
Q 1119 906 1312 657 
Q 1506 409 1894 409 
Q 2359 409 2629 706 
Q 2900 1003 2900 1516 
L 2900 3500 
L 3475 3500 
L 3475 0 
L 2900 0 
L 2900 538 
Q 2691 219 2414 64 
Q 2138 -91 1772 -91 
Q 1169 -91 856 284 
Q 544 659 544 1381 
z
M 1991 3584 
L 1991 3584 
z
" transform="scale(0.015625)"/>
      </defs>
      <use xlink:href="#DejaVuSans-41"/>
      <use xlink:href="#DejaVuSans-74" x="66.658203"/>
      <use xlink:href="#DejaVuSans-74" x="105.867188"/>
      <use xlink:href="#DejaVuSans-65" x="145.076172"/>
      <use xlink:href="#DejaVuSans-6e" x="206.599609"/>
      <use xlink:href="#DejaVuSans-74" x="269.978516"/>
      <use xlink:href="#DejaVuSans-69" x="309.1875"/>
      <use xlink:href="#DejaVuSans-6f" x="336.970703"/>
      <use xlink:href="#DejaVuSans-6e" x="398.152344"/>
      <use xlink:href="#DejaVuSans-20" x="461.53125"/>
      <use xlink:href="#DejaVuSans-56" x="493.318359"/>
      <use xlink:href="#DejaVuSans-61" x="553.976562"/>
      <use xlink:href="#DejaVuSans-6c" x="615.255859"/>
      <use xlink:href="#DejaVuSans-75" x="643.039062"/>
      <use xlink:href="#DejaVuSans-65" x="706.417969"/>
     </g>
    </g>
   </g>
   <g id="matplotlib.axis_2">
    <g id="ytick_1">
     <g id="line2d_4">
      <defs>
       <path id="m4a63f203dc" d="M 0 0 
L -3.5 0 
" style="stroke: #000000; stroke-width: 0.8"/>
      </defs>
      <g>
       <use xlink:href="#m4a63f203dc" x="81" y="576.72" style="stroke: #000000; stroke-width: 0.8"/>
      </g>
     </g>
     <g id="text_5">
      <!-- 0.0 -->
      <g transform="translate(45.374375 583.558594)scale(0.18 -0.18)">
       <use xlink:href="#DejaVuSans-30"/>
       <use xlink:href="#DejaVuSans-2e" x="63.623047"/>
       <use xlink:href="#DejaVuSans-30" x="95.410156"/>
      </g>
     </g>
    </g>
    <g id="ytick_2">
     <g id="line2d_5">
      <g>
       <use xlink:href="#m4a63f203dc" x="81" y="490.390167" style="stroke: #000000; stroke-width: 0.8"/>
      </g>
     </g>
     <g id="text_6">
      <!-- 0.5 -->
      <g transform="translate(45.374375 497.228761)scale(0.18 -0.18)">
       <use xlink:href="#DejaVuSans-30"/>
       <use xlink:href="#DejaVuSans-2e" x="63.623047"/>
       <use xlink:href="#DejaVuSans-35" x="95.410156"/>
      </g>
     </g>
    </g>
    <g id="ytick_3">
     <g id="line2d_6">
      <g>
       <use xlink:href="#m4a63f203dc" x="81" y="404.060334" style="stroke: #000000; stroke-width: 0.8"/>
      </g>
     </g>
     <g id="text_7">
      <!-- 1.0 -->
      <g transform="translate(45.374375 410.898928)scale(0.18 -0.18)">
       <use xlink:href="#DejaVuSans-31"/>
       <use xlink:href="#DejaVuSans-2e" x="63.623047"/>
       <use xlink:href="#DejaVuSans-30" x="95.410156"/>
      </g>
     </g>
    </g>
    <g id="ytick_4">
     <g id="line2d_7">
      <g>
       <use xlink:href="#m4a63f203dc" x="81" y="317.730501" style="stroke: #000000; stroke-width: 0.8"/>
      </g>
     </g>
     <g id="text_8">
      <!-- 1.5 -->
      <g transform="translate(45.374375 324.569094)scale(0.18 -0.18)">
       <use xlink:href="#DejaVuSans-31"/>
       <use xlink:href="#DejaVuSans-2e" x="63.623047"/>
       <use xlink:href="#DejaVuSans-35" x="95.410156"/>
      </g>
     </g>
    </g>
    <g id="ytick_5">
     <g id="line2d_8">
      <g>
       <use xlink:href="#m4a63f203dc" x="81" y="231.400668" style="stroke: #000000; stroke-width: 0.8"/>
      </g>
     </g>
     <g id="text_9">
      <!-- 2.0 -->
      <g transform="translate(45.374375 238.239261)scale(0.18 -0.18)">
       <defs>
        <path id="DejaVuSans-32" d="M 1228 531 
L 3431 531 
L 3431 0 
L 469 0 
L 469 531 
Q 828 903 1448 1529 
Q 2069 2156 2228 2338 
Q 2531 2678 2651 2914 
Q 2772 3150 2772 3378 
Q 2772 3750 2511 3984 
Q 2250 4219 1831 4219 
Q 1534 4219 1204 4116 
Q 875 4013 500 3803 
L 500 4441 
Q 881 4594 1212 4672 
Q 1544 4750 1819 4750 
Q 2544 4750 2975 4387 
Q 3406 4025 3406 3419 
Q 3406 3131 3298 2873 
Q 3191 2616 2906 2266 
Q 2828 2175 2409 1742 
Q 1991 1309 1228 531 
z
" transform="scale(0.015625)"/>
       </defs>
       <use xlink:href="#DejaVuSans-32"/>
       <use xlink:href="#DejaVuSans-2e" x="63.623047"/>
       <use xlink:href="#DejaVuSans-30" x="95.410156"/>
      </g>
     </g>
    </g>
    <g id="ytick_6">
     <g id="line2d_9">
      <g>
       <use xlink:href="#m4a63f203dc" x="81" y="145.070835" style="stroke: #000000; stroke-width: 0.8"/>
      </g>
     </g>
     <g id="text_10">
      <!-- 2.5 -->
      <g transform="translate(45.374375 151.909428)scale(0.18 -0.18)">
       <use xlink:href="#DejaVuSans-32"/>
       <use xlink:href="#DejaVuSans-2e" x="63.623047"/>
       <use xlink:href="#DejaVuSans-35" x="95.410156"/>
      </g>
     </g>
    </g>
    <g id="text_11">
     <!-- Probability Denisity Function -->
     <g transform="translate(36.383125 498.286875)rotate(-90)scale(0.24 -0.24)">
      <defs>
       <path id="DejaVuSans-50" d="M 1259 4147 
L 1259 2394 
L 2053 2394 
Q 2494 2394 2734 2622 
Q 2975 2850 2975 3272 
Q 2975 3691 2734 3919 
Q 2494 4147 2053 4147 
L 1259 4147 
z
M 628 4666 
L 2053 4666 
Q 2838 4666 3239 4311 
Q 3641 3956 3641 3272 
Q 3641 2581 3239 2228 
Q 2838 1875 2053 1875 
L 1259 1875 
L 1259 0 
L 628 0 
L 628 4666 
z
" transform="scale(0.015625)"/>
       <path id="DejaVuSans-72" d="M 2631 2963 
Q 2534 3019 2420 3045 
Q 2306 3072 2169 3072 
Q 1681 3072 1420 2755 
Q 1159 2438 1159 1844 
L 1159 0 
L 581 0 
L 581 3500 
L 1159 3500 
L 1159 2956 
Q 1341 3275 1631 3429 
Q 1922 3584 2338 3584 
Q 2397 3584 2469 3576 
Q 2541 3569 2628 3553 
L 2631 2963 
z
" transform="scale(0.015625)"/>
       <path id="DejaVuSans-62" d="M 3116 1747 
Q 3116 2381 2855 2742 
Q 2594 3103 2138 3103 
Q 1681 3103 1420 2742 
Q 1159 2381 1159 1747 
Q 1159 1113 1420 752 
Q 1681 391 2138 391 
Q 2594 391 2855 752 
Q 3116 1113 3116 1747 
z
M 1159 2969 
Q 1341 3281 1617 3432 
Q 1894 3584 2278 3584 
Q 2916 3584 3314 3078 
Q 3713 2572 3713 1747 
Q 3713 922 3314 415 
Q 2916 -91 2278 -91 
Q 1894 -91 1617 61 
Q 1341 213 1159 525 
L 1159 0 
L 581 0 
L 581 4863 
L 1159 4863 
L 1159 2969 
z
" transform="scale(0.015625)"/>
       <path id="DejaVuSans-79" d="M 2059 -325 
Q 1816 -950 1584 -1140 
Q 1353 -1331 966 -1331 
L 506 -1331 
L 506 -850 
L 844 -850 
Q 1081 -850 1212 -737 
Q 1344 -625 1503 -206 
L 1606 56 
L 191 3500 
L 800 3500 
L 1894 763 
L 2988 3500 
L 3597 3500 
L 2059 -325 
z
" transform="scale(0.015625)"/>
       <path id="DejaVuSans-44" d="M 1259 4147 
L 1259 519 
L 2022 519 
Q 2988 519 3436 956 
Q 3884 1394 3884 2338 
Q 3884 3275 3436 3711 
Q 2988 4147 2022 4147 
L 1259 4147 
z
M 628 4666 
L 1925 4666 
Q 3281 4666 3915 4102 
Q 4550 3538 4550 2338 
Q 4550 1131 3912 565 
Q 3275 0 1925 0 
L 628 0 
L 628 4666 
z
" transform="scale(0.015625)"/>
       <path id="DejaVuSans-73" d="M 2834 3397 
L 2834 2853 
Q 2591 2978 2328 3040 
Q 2066 3103 1784 3103 
Q 1356 3103 1142 2972 
Q 928 2841 928 2578 
Q 928 2378 1081 2264 
Q 1234 2150 1697 2047 
L 1894 2003 
Q 2506 1872 2764 1633 
Q 3022 1394 3022 966 
Q 3022 478 2636 193 
Q 2250 -91 1575 -91 
Q 1294 -91 989 -36 
Q 684 19 347 128 
L 347 722 
Q 666 556 975 473 
Q 1284 391 1588 391 
Q 1994 391 2212 530 
Q 2431 669 2431 922 
Q 2431 1156 2273 1281 
Q 2116 1406 1581 1522 
L 1381 1569 
Q 847 1681 609 1914 
Q 372 2147 372 2553 
Q 372 3047 722 3315 
Q 1072 3584 1716 3584 
Q 2034 3584 2315 3537 
Q 2597 3491 2834 3397 
z
" transform="scale(0.015625)"/>
       <path id="DejaVuSans-46" d="M 628 4666 
L 3309 4666 
L 3309 4134 
L 1259 4134 
L 1259 2759 
L 3109 2759 
L 3109 2228 
L 1259 2228 
L 1259 0 
L 628 0 
L 628 4666 
z
" transform="scale(0.015625)"/>
       <path id="DejaVuSans-63" d="M 3122 3366 
L 3122 2828 
Q 2878 2963 2633 3030 
Q 2388 3097 2138 3097 
Q 1578 3097 1268 2742 
Q 959 2388 959 1747 
Q 959 1106 1268 751 
Q 1578 397 2138 397 
Q 2388 397 2633 464 
Q 2878 531 3122 666 
L 3122 134 
Q 2881 22 2623 -34 
Q 2366 -91 2075 -91 
Q 1284 -91 818 406 
Q 353 903 353 1747 
Q 353 2603 823 3093 
Q 1294 3584 2113 3584 
Q 2378 3584 2631 3529 
Q 2884 3475 3122 3366 
z
" transform="scale(0.015625)"/>
      </defs>
      <use xlink:href="#DejaVuSans-50"/>
      <use xlink:href="#DejaVuSans-72" x="58.552734"/>
      <use xlink:href="#DejaVuSans-6f" x="97.416016"/>
      <use xlink:href="#DejaVuSans-62" x="158.597656"/>
      <use xlink:href="#DejaVuSans-61" x="222.074219"/>
      <use xlink:href="#DejaVuSans-62" x="283.353516"/>
      <use xlink:href="#DejaVuSans-69" x="346.830078"/>
      <use xlink:href="#DejaVuSans-6c" x="374.613281"/>
      <use xlink:href="#DejaVuSans-69" x="402.396484"/>
      <use xlink:href="#DejaVuSans-74" x="430.179688"/>
      <use xlink:href="#DejaVuSans-79" x="469.388672"/>
      <use xlink:href="#DejaVuSans-20" x="528.568359"/>
      <use xlink:href="#DejaVuSans-44" x="560.355469"/>
      <use xlink:href="#DejaVuSans-65" x="637.357422"/>
      <use xlink:href="#DejaVuSans-6e" x="698.880859"/>
      <use xlink:href="#DejaVuSans-69" x="762.259766"/>
      <use xlink:href="#DejaVuSans-73" x="790.042969"/>
      <use xlink:href="#DejaVuSans-69" x="842.142578"/>
      <use xlink:href="#DejaVuSans-74" x="869.925781"/>
      <use xlink:href="#DejaVuSans-79" x="909.134766"/>
      <use xlink:href="#DejaVuSans-20" x="968.314453"/>
      <use xlink:href="#DejaVuSans-46" x="1000.101562"/>
      <use xlink:href="#DejaVuSans-75" x="1052.121094"/>
      <use xlink:href="#DejaVuSans-6e" x="1115.5"/>
      <use xlink:href="#DejaVuSans-63" x="1178.878906"/>
      <use xlink:href="#DejaVuSans-74" x="1233.859375"/>
      <use xlink:href="#DejaVuSans-69" x="1273.068359"/>
      <use xlink:href="#DejaVuSans-6f" x="1300.851562"/>
      <use xlink:href="#DejaVuSans-6e" x="1362.033203"/>
     </g>
    </g>
   </g>
   <g id="patch_3">
    <path d="M 81 576.72 
L 81 77.76 
" style="fill: none; stroke: #000000; stroke-width: 0.8; stroke-linejoin: miter; stroke-linecap: square"/>
   </g>
   <g id="patch_4">
    <path d="M 583.2 576.72 
L 583.2 77.76 
" style="fill: none; stroke: #000000; stroke-width: 0.8; stroke-linejoin: miter; stroke-linecap: square"/>
   </g>
   <g id="patch_5">
    <path d="M 81 576.72 
L 583.2 576.72 
" style="fill: none; stroke: #000000; stroke-width: 0.8; stroke-linejoin: miter; stroke-linecap: square"/>
   </g>
   <g id="patch_6">
    <path d="M 81 77.76 
L 583.2 77.76 
" style="fill: none; stroke: #000000; stroke-width: 0.8; stroke-linejoin: miter; stroke-linecap: square"/>
   </g>
   <g id="legend_1">
    <g id="patch_7">
     <path d="M 103.66 211.185 
L 217.66 211.185 
Q 221.66 211.185 221.66 207.185 
L 221.66 91.76 
Q 221.66 87.76 217.66 87.76 
L 103.66 87.76 
Q 99.66 87.76 99.66 91.76 
L 99.66 207.185 
Q 99.66 211.185 103.66 211.185 
z
" style="fill: #ffffff; opacity: 0.8; stroke: #cccccc; stroke-linejoin: miter"/>
    </g>
    <g id="patch_8">
     <path d="M 107.66 110.956875 
L 147.66 110.956875 
L 147.66 96.956875 
L 107.66 96.956875 
z
" style="fill: #1f77b4; fill-opacity: 0.25; stroke: #1f77b4; stroke-linejoin: miter"/>
    </g>
    <g id="text_12">
     <!-- 3$\rightarrow$0 -->
     <g transform="translate(163.66 110.956875)scale(0.2 -0.2)">
      <defs>
       <path id="DejaVuSans-33" d="M 2597 2516 
Q 3050 2419 3304 2112 
Q 3559 1806 3559 1356 
Q 3559 666 3084 287 
Q 2609 -91 1734 -91 
Q 1441 -91 1130 -33 
Q 819 25 488 141 
L 488 750 
Q 750 597 1062 519 
Q 1375 441 1716 441 
Q 2309 441 2620 675 
Q 2931 909 2931 1356 
Q 2931 1769 2642 2001 
Q 2353 2234 1838 2234 
L 1294 2234 
L 1294 2753 
L 1863 2753 
Q 2328 2753 2575 2939 
Q 2822 3125 2822 3475 
Q 2822 3834 2567 4026 
Q 2313 4219 1838 4219 
Q 1578 4219 1281 4162 
Q 984 4106 628 3988 
L 628 4550 
Q 988 4650 1302 4700 
Q 1616 4750 1894 4750 
Q 2613 4750 3031 4423 
Q 3450 4097 3450 3541 
Q 3450 3153 3228 2886 
Q 3006 2619 2597 2516 
z
" transform="scale(0.015625)"/>
       <path id="DejaVuSans-2192" d="M 5050 2147 
L 5050 1866 
L 3822 638 
L 3447 1013 
L 4175 1741 
L 366 1741 
L 366 2272 
L 4175 2272 
L 3447 3000 
L 3822 3375 
L 5050 2147 
z
" transform="scale(0.015625)"/>
      </defs>
      <use xlink:href="#DejaVuSans-33" transform="translate(0 0.78125)"/>
      <use xlink:href="#DejaVuSans-2192" transform="translate(83.105469 0.78125)"/>
      <use xlink:href="#DejaVuSans-30" transform="translate(186.376953 0.78125)"/>
     </g>
    </g>
    <g id="patch_9">
     <path d="M 107.66 140.313125 
L 147.66 140.313125 
L 147.66 126.313125 
L 107.66 126.313125 
z
" style="fill: #ff7f0e; fill-opacity: 0.25; stroke: #ff7f0e; stroke-linejoin: miter"/>
    </g>
    <g id="text_13">
     <!-- 3$\rightarrow$1 -->
     <g transform="translate(163.66 140.313125)scale(0.2 -0.2)">
      <use xlink:href="#DejaVuSans-33" transform="translate(0 0.78125)"/>
      <use xlink:href="#DejaVuSans-2192" transform="translate(83.105469 0.78125)"/>
      <use xlink:href="#DejaVuSans-31" transform="translate(186.376953 0.78125)"/>
     </g>
    </g>
    <g id="patch_10">
     <path d="M 107.66 169.669375 
L 147.66 169.669375 
L 147.66 155.669375 
L 107.66 155.669375 
z
" style="fill: #2ca02c; fill-opacity: 0.25; stroke: #2ca02c; stroke-linejoin: miter"/>
    </g>
    <g id="text_14">
     <!-- 3$\rightarrow$2 -->
     <g transform="translate(163.66 169.669375)scale(0.2 -0.2)">
      <use xlink:href="#DejaVuSans-33" transform="translate(0 0.78125)"/>
      <use xlink:href="#DejaVuSans-2192" transform="translate(83.105469 0.78125)"/>
      <use xlink:href="#DejaVuSans-32" transform="translate(186.376953 0.78125)"/>
     </g>
    </g>
    <g id="patch_11">
     <path d="M 107.66 199.025625 
L 147.66 199.025625 
L 147.66 185.025625 
L 107.66 185.025625 
z
" style="fill: #d62728; fill-opacity: 0.25; stroke: #d62728; stroke-linejoin: miter"/>
    </g>
    <g id="text_15">
     <!-- 3$\rightarrow$3 -->
     <g transform="translate(163.66 199.025625)scale(0.2 -0.2)">
      <use xlink:href="#DejaVuSans-33" transform="translate(0 0.78125)"/>
      <use xlink:href="#DejaVuSans-2192" transform="translate(83.105469 0.78125)"/>
      <use xlink:href="#DejaVuSans-33" transform="translate(186.376953 0.78125)"/>
     </g>
    </g>
   </g>
  </g>
 </g>
 <defs>
  <clipPath id="p591a018c8f">
   <rect x="81" y="77.76" width="502.2" height="498.96"/>
  </clipPath>
 </defs>
</svg>
