<?xml version="1.0" encoding="utf-8" standalone="no"?>
<!DOCTYPE svg PUBLIC "-//W3C//DTD SVG 1.1//EN"
  "http://www.w3.org/Graphics/SVG/1.1/DTD/svg11.dtd">
<svg xmlns:xlink="http://www.w3.org/1999/xlink" width="648pt" height="648pt" viewBox="0 0 648 648" xmlns="http://www.w3.org/2000/svg" version="1.1">
 <metadata>
  <rdf:RDF xmlns:dc="http://purl.org/dc/elements/1.1/" xmlns:cc="http://creativecommons.org/ns#" xmlns:rdf="http://www.w3.org/1999/02/22-rdf-syntax-ns#">
   <cc:Work>
    <dc:type rdf:resource="http://purl.org/dc/dcmitype/StillImage"/>
    <dc:date>2023-05-08T16:50:19.245245</dc:date>
    <dc:format>image/svg+xml</dc:format>
    <dc:creator>
     <cc:Agent>
      <dc:title>Matplotlib v3.5.3, https://matplotlib.org/</dc:title>
     </cc:Agent>
    </dc:creator>
   </cc:Work>
  </rdf:RDF>
 </metadata>
 <defs>
  <style type="text/css">*{stroke-linejoin: round; stroke-linecap: butt}</style>
 </defs>
 <g id="figure_1">
  <g id="patch_1">
   <path d="M 0 648 
L 648 648 
L 648 0 
L 0 0 
z
" style="fill: #ffffff"/>
  </g>
  <g id="axes_1">
   <g id="patch_2">
    <path d="M 81 576.72 
L 583.2 576.72 
L 583.2 77.76 
L 81 77.76 
z
" style="fill: #ffffff"/>
   </g>
   <g id="PolyCollection_1">
    <defs>
     <path id="me305462ff2" d="M 469.977813 -71.555392 
L 469.977813 -71.28 
L 470.693511 -71.28 
L 471.409208 -71.28 
L 472.124906 -71.28 
L 472.840603 -71.28 
L 473.556301 -71.28 
L 474.271998 -71.28 
L 474.987696 -71.28 
L 475.703393 -71.28 
L 476.419091 -71.28 
L 477.134788 -71.28 
L 477.850486 -71.28 
L 478.566183 -71.28 
L 479.281881 -71.28 
L 479.997578 -71.28 
L 480.713276 -71.28 
L 481.428973 -71.28 
L 482.144671 -71.28 
L 482.860368 -71.28 
L 483.576066 -71.28 
L 484.291763 -71.28 
L 485.007461 -71.28 
L 485.723158 -71.28 
L 486.438856 -71.28 
L 487.154553 -71.28 
L 487.870251 -71.28 
L 488.585948 -71.28 
L 489.301646 -71.28 
L 490.017343 -71.28 
L 490.733041 -71.28 
L 491.448738 -71.28 
L 492.164436 -71.28 
L 492.880133 -71.28 
L 493.595831 -71.28 
L 494.311529 -71.28 
L 495.027226 -71.28 
L 495.742924 -71.28 
L 496.458621 -71.28 
L 497.174319 -71.28 
L 497.890016 -71.28 
L 498.605714 -71.28 
L 499.321411 -71.28 
L 500.037109 -71.28 
L 500.752806 -71.28 
L 501.468504 -71.28 
L 502.184201 -71.28 
L 502.899899 -71.28 
L 503.615596 -71.28 
L 504.331294 -71.28 
L 505.046991 -71.28 
L 505.762689 -71.28 
L 506.478386 -71.28 
L 507.194084 -71.28 
L 507.909781 -71.28 
L 508.625479 -71.28 
L 509.341176 -71.28 
L 510.056874 -71.28 
L 510.772571 -71.28 
L 511.488269 -71.28 
L 512.203966 -71.28 
L 512.919664 -71.28 
L 513.635361 -71.28 
L 514.351059 -71.28 
L 515.066756 -71.28 
L 515.782454 -71.28 
L 516.498151 -71.28 
L 517.213849 -71.28 
L 517.929547 -71.28 
L 518.645244 -71.28 
L 519.360942 -71.28 
L 520.076639 -71.28 
L 520.792337 -71.28 
L 521.508034 -71.28 
L 522.223732 -71.28 
L 522.939429 -71.28 
L 523.655127 -71.28 
L 524.370824 -71.28 
L 525.086522 -71.28 
L 525.802219 -71.28 
L 526.517917 -71.28 
L 527.233614 -71.28 
L 527.949312 -71.28 
L 528.665009 -71.28 
L 529.380707 -71.28 
L 530.096404 -71.28 
L 530.812102 -71.28 
L 531.527799 -71.28 
L 532.243497 -71.28 
L 532.959194 -71.28 
L 533.674892 -71.28 
L 534.390589 -71.28 
L 535.106287 -71.28 
L 535.821984 -71.28 
L 536.537682 -71.28 
L 537.253379 -71.28 
L 537.969077 -71.28 
L 538.684774 -71.28 
L 539.400472 -71.28 
L 540.116169 -71.28 
L 540.831867 -71.28 
L 541.547565 -71.28 
L 542.263262 -71.28 
L 542.97896 -71.28 
L 543.694657 -71.28 
L 544.410355 -71.28 
L 545.126052 -71.28 
L 545.84175 -71.28 
L 546.557447 -71.28 
L 547.273145 -71.28 
L 547.988842 -71.28 
L 548.70454 -71.28 
L 549.420237 -71.28 
L 550.135935 -71.28 
L 550.851632 -71.28 
L 551.56733 -71.28 
L 552.283027 -71.28 
L 552.998725 -71.28 
L 553.714422 -71.28 
L 554.43012 -71.28 
L 555.145817 -71.28 
L 555.861515 -71.28 
L 556.577212 -71.28 
L 557.29291 -71.28 
L 558.008607 -71.28 
L 558.724305 -71.28 
L 559.440002 -71.28 
L 560.1557 -71.28 
L 560.871397 -71.28 
L 561.587095 -71.28 
L 562.302792 -71.28 
L 563.01849 -71.28 
L 563.734187 -71.28 
L 564.449885 -71.28 
L 565.165583 -71.28 
L 565.88128 -71.28 
L 566.596978 -71.28 
L 567.312675 -71.28 
L 568.028373 -71.28 
L 568.74407 -71.28 
L 569.459768 -71.28 
L 570.175465 -71.28 
L 570.891163 -71.28 
L 571.60686 -71.28 
L 572.322558 -71.28 
L 573.038255 -71.28 
L 573.753953 -71.28 
L 574.46965 -71.28 
L 575.185348 -71.28 
L 575.901045 -71.28 
L 576.616743 -71.28 
L 577.33244 -71.28 
L 578.048138 -71.28 
L 578.763835 -71.28 
L 579.479533 -71.28 
L 580.19523 -71.28 
L 580.910928 -71.28 
L 581.626625 -71.28 
L 582.342323 -71.28 
L 583.05802 -71.28 
L 583.773718 -71.28 
L 584.489415 -71.28 
L 585.205113 -71.28 
L 585.92081 -71.28 
L 586.636508 -71.28 
L 587.352205 -71.28 
L 588.067903 -71.28 
L 588.783601 -71.28 
L 589.499298 -71.28 
L 590.214996 -71.28 
L 590.930693 -71.28 
L 591.646391 -71.28 
L 592.362088 -71.28 
L 593.077786 -71.28 
L 593.793483 -71.28 
L 594.509181 -71.28 
L 595.224878 -71.28 
L 595.940576 -71.28 
L 596.656273 -71.28 
L 597.371971 -71.28 
L 598.087668 -71.28 
L 598.803366 -71.28 
L 599.519063 -71.28 
L 600.234761 -71.28 
L 600.950458 -71.28 
L 601.666156 -71.28 
L 602.381853 -71.28 
L 603.097551 -71.28 
L 603.813248 -71.28 
L 604.528946 -71.28 
L 605.244643 -71.28 
L 605.960341 -71.28 
L 606.676038 -71.28 
L 607.391736 -71.28 
L 608.107433 -71.28 
L 608.823131 -71.28 
L 609.538828 -71.28 
L 610.254526 -71.28 
L 610.970223 -71.28 
L 611.685921 -71.28 
L 612.401618 -71.28 
L 612.401618 -72.669101 
L 612.401618 -72.669101 
L 611.685921 -73.012031 
L 610.970223 -73.428079 
L 610.254526 -73.929838 
L 609.538828 -74.531358 
L 608.823131 -75.248153 
L 608.107433 -76.097176 
L 607.391736 -77.09674 
L 606.676038 -78.266388 
L 605.960341 -79.6267 
L 605.244643 -81.19904 
L 604.528946 -83.00523 
L 603.813248 -85.067151 
L 603.097551 -87.406288 
L 602.381853 -90.043201 
L 601.666156 -92.996948 
L 600.950458 -96.284466 
L 600.234761 -99.919924 
L 599.519063 -103.914078 
L 598.803366 -108.273637 
L 598.087668 -113.000676 
L 597.371971 -118.092124 
L 596.656273 -123.539347 
L 595.940576 -129.327866 
L 595.224878 -135.437223 
L 594.509181 -141.84103 
L 593.793483 -148.507207 
L 593.077786 -155.398431 
L 592.362088 -162.472789 
L 591.646391 -169.684643 
L 590.930693 -176.985674 
L 590.214996 -184.326101 
L 589.499298 -191.656027 
L 588.783601 -198.926879 
L 588.067903 -206.092892 
L 587.352205 -213.11258 
L 586.636508 -219.950135 
L 585.92081 -226.576713 
L 585.205113 -232.97152 
L 584.489415 -239.122685 
L 583.773718 -245.027842 
L 583.05802 -250.69441 
L 582.342323 -256.139541 
L 581.626625 -261.389725 
L 580.910928 -266.480059 
L 580.19523 -271.45321 
L 579.479533 -276.35808 
L 578.763835 -281.248249 
L 578.048138 -286.180233 
L 577.33244 -291.211617 
L 576.616743 -296.399159 
L 575.901045 -301.796901 
L 575.185348 -307.454381 
L 574.46965 -313.415009 
L 573.753953 -319.714648 
L 573.038255 -326.380467 
L 572.322558 -333.430091 
L 571.60686 -340.871072 
L 570.891163 -348.700684 
L 570.175465 -356.906049 
L 569.459768 -365.464556 
L 568.74407 -374.344555 
L 568.028373 -383.506276 
L 567.312675 -392.902931 
L 566.596978 -402.481939 
L 565.88128 -412.186217 
L 565.165583 -421.955491 
L 564.449885 -431.727561 
L 563.734187 -441.439489 
L 563.01849 -451.028661 
L 562.302792 -460.433698 
L 561.587095 -469.595202 
L 560.871397 -478.456323 
L 560.1557 -486.963156 
L 559.440002 -495.064974 
L 558.724305 -502.714325 
L 558.008607 -509.867017 
L 557.29291 -516.482027 
L 556.577212 -522.521359 
L 555.861515 -527.9499 
L 555.145817 -532.735302 
L 554.43012 -536.847915 
L 553.714422 -540.260798 
L 552.998725 -542.94983 
L 552.283027 -544.893916 
L 551.56733 -546.075307 
L 550.851632 -546.48 
L 550.135935 -546.098232 
L 549.420237 -544.925011 
L 548.70454 -542.960682 
L 547.988842 -540.211476 
L 547.273145 -536.69001 
L 546.557447 -532.415709 
L 545.84175 -527.415099 
L 545.126052 -521.721958 
L 544.410355 -515.377287 
L 543.694657 -508.429079 
L 542.97896 -500.931892 
L 542.263262 -492.946204 
L 541.547565 -484.537574 
L 540.831867 -475.775609 
L 540.116169 -466.732778 
L 539.400472 -457.483092 
L 538.684774 -448.100696 
L 537.969077 -438.65841 
L 537.253379 -429.226271 
L 536.537682 -419.870122 
L 535.821984 -410.650285 
L 535.106287 -401.620379 
L 534.390589 -392.826306 
L 533.674892 -384.305449 
L 532.959194 -376.086106 
L 532.243497 -368.187179 
L 531.527799 -360.618123 
L 530.812102 -353.379169 
L 530.096404 -346.461799 
L 529.380707 -339.849463 
L 528.665009 -333.518514 
L 527.949312 -327.439329 
L 527.233614 -321.577566 
L 526.517917 -315.895536 
L 525.802219 -310.353625 
L 525.086522 -304.911723 
L 524.370824 -299.530618 
L 523.655127 -294.173303 
L 522.939429 -288.806158 
L 522.223732 -283.399971 
L 521.508034 -277.930761 
L 520.792337 -272.380392 
L 520.076639 -266.736953 
L 519.360942 -260.994907 
L 518.645244 -255.155006 
L 517.929547 -249.22399 
L 517.213849 -243.214088 
L 516.498151 -237.142343 
L 515.782454 -231.029805 
L 515.066756 -224.900616 
L 514.351059 -218.781035 
L 513.635361 -212.698444 
L 512.919664 -206.680359 
L 512.203966 -200.753508 
L 511.488269 -194.942985 
L 510.772571 -189.271516 
L 510.056874 -183.758866 
L 509.341176 -178.421385 
L 508.625479 -173.271721 
L 507.909781 -168.31868 
L 507.194084 -163.567239 
L 506.478386 -159.018706 
L 505.762689 -154.670993 
L 505.046991 -150.518999 
L 504.331294 -146.555068 
L 503.615596 -142.769508 
L 502.899899 -139.151137 
L 502.184201 -135.68783 
L 501.468504 -132.367063 
L 500.752806 -129.176406 
L 500.037109 -126.103975 
L 499.321411 -123.138807 
L 498.605714 -120.271171 
L 497.890016 -117.492791 
L 497.174319 -114.796987 
L 496.458621 -112.17874 
L 495.742924 -109.634678 
L 495.027226 -107.162999 
L 494.311529 -104.763332 
L 493.595831 -102.436553 
L 492.880133 -100.184568 
L 492.164436 -98.010076 
L 491.448738 -95.916313 
L 490.733041 -93.906806 
L 490.017343 -91.985133 
L 489.301646 -90.154702 
L 488.585948 -88.418558 
L 487.870251 -86.779218 
L 487.154553 -85.238542 
L 486.438856 -83.79764 
L 485.723158 -82.456814 
L 485.007461 -81.215531 
L 484.291763 -80.072434 
L 483.576066 -79.025373 
L 482.860368 -78.071467 
L 482.144671 -77.207178 
L 481.428973 -76.428406 
L 480.713276 -75.730587 
L 479.997578 -75.108797 
L 479.281881 -74.55786 
L 478.566183 -74.07245 
L 477.850486 -73.647188 
L 477.134788 -73.276726 
L 476.419091 -72.955832 
L 475.703393 -72.679448 
L 474.987696 -72.442751 
L 474.271998 -72.241193 
L 473.556301 -72.070531 
L 472.840603 -71.926849 
L 472.124906 -71.80657 
L 471.409208 -71.706451 
L 470.693511 -71.623587 
L 469.977813 -71.555392 
z
" style="stroke: #1f77b4"/>
    </defs>
    <g clip-path="url(#pa07886f6ab)">
     <use xlink:href="#me305462ff2" x="0" y="648" style="fill: #1f77b4; fill-opacity: 0.25; stroke: #1f77b4"/>
    </g>
   </g>
   <g id="PolyCollection_2">
    <defs>
     <path id="m29f42bd75f" d="M 395.6388 -71.499262 
L 395.6388 -71.28 
L 396.8541 -71.28 
L 398.0694 -71.28 
L 399.284699 -71.28 
L 400.499999 -71.28 
L 401.715299 -71.28 
L 402.930598 -71.28 
L 404.145898 -71.28 
L 405.361198 -71.28 
L 406.576497 -71.28 
L 407.791797 -71.28 
L 409.007097 -71.28 
L 410.222396 -71.28 
L 411.437696 -71.28 
L 412.652995 -71.28 
L 413.868295 -71.28 
L 415.083595 -71.28 
L 416.298894 -71.28 
L 417.514194 -71.28 
L 418.729494 -71.28 
L 419.944793 -71.28 
L 421.160093 -71.28 
L 422.375393 -71.28 
L 423.590692 -71.28 
L 424.805992 -71.28 
L 426.021292 -71.28 
L 427.236591 -71.28 
L 428.451891 -71.28 
L 429.667191 -71.28 
L 430.88249 -71.28 
L 432.09779 -71.28 
L 433.31309 -71.28 
L 434.528389 -71.28 
L 435.743689 -71.28 
L 436.958989 -71.28 
L 438.174288 -71.28 
L 439.389588 -71.28 
L 440.604888 -71.28 
L 441.820187 -71.28 
L 443.035487 -71.28 
L 444.250786 -71.28 
L 445.466086 -71.28 
L 446.681386 -71.28 
L 447.896685 -71.28 
L 449.111985 -71.28 
L 450.327285 -71.28 
L 451.542584 -71.28 
L 452.757884 -71.28 
L 453.973184 -71.28 
L 455.188483 -71.28 
L 456.403783 -71.28 
L 457.619083 -71.28 
L 458.834382 -71.28 
L 460.049682 -71.28 
L 461.264982 -71.28 
L 462.480281 -71.28 
L 463.695581 -71.28 
L 464.910881 -71.28 
L 466.12618 -71.28 
L 467.34148 -71.28 
L 468.55678 -71.28 
L 469.772079 -71.28 
L 470.987379 -71.28 
L 472.202678 -71.28 
L 473.417978 -71.28 
L 474.633278 -71.28 
L 475.848577 -71.28 
L 477.063877 -71.28 
L 478.279177 -71.28 
L 479.494476 -71.28 
L 480.709776 -71.28 
L 481.925076 -71.28 
L 483.140375 -71.28 
L 484.355675 -71.28 
L 485.570975 -71.28 
L 486.786274 -71.28 
L 488.001574 -71.28 
L 489.216874 -71.28 
L 490.432173 -71.28 
L 491.647473 -71.28 
L 492.862773 -71.28 
L 494.078072 -71.28 
L 495.293372 -71.28 
L 496.508672 -71.28 
L 497.723971 -71.28 
L 498.939271 -71.28 
L 500.15457 -71.28 
L 501.36987 -71.28 
L 502.58517 -71.28 
L 503.800469 -71.28 
L 505.015769 -71.28 
L 506.231069 -71.28 
L 507.446368 -71.28 
L 508.661668 -71.28 
L 509.876968 -71.28 
L 511.092267 -71.28 
L 512.307567 -71.28 
L 513.522867 -71.28 
L 514.738166 -71.28 
L 515.953466 -71.28 
L 517.168766 -71.28 
L 518.384065 -71.28 
L 519.599365 -71.28 
L 520.814665 -71.28 
L 522.029964 -71.28 
L 523.245264 -71.28 
L 524.460564 -71.28 
L 525.675863 -71.28 
L 526.891163 -71.28 
L 528.106463 -71.28 
L 529.321762 -71.28 
L 530.537062 -71.28 
L 531.752361 -71.28 
L 532.967661 -71.28 
L 534.182961 -71.28 
L 535.39826 -71.28 
L 536.61356 -71.28 
L 537.82886 -71.28 
L 539.044159 -71.28 
L 540.259459 -71.28 
L 541.474759 -71.28 
L 542.690058 -71.28 
L 543.905358 -71.28 
L 545.120658 -71.28 
L 546.335957 -71.28 
L 547.551257 -71.28 
L 548.766557 -71.28 
L 549.981856 -71.28 
L 551.197156 -71.28 
L 552.412456 -71.28 
L 553.627755 -71.28 
L 554.843055 -71.28 
L 556.058355 -71.28 
L 557.273654 -71.28 
L 558.488954 -71.28 
L 559.704253 -71.28 
L 560.919553 -71.28 
L 562.134853 -71.28 
L 563.350152 -71.28 
L 564.565452 -71.28 
L 565.780752 -71.28 
L 566.996051 -71.28 
L 568.211351 -71.28 
L 569.426651 -71.28 
L 570.64195 -71.28 
L 571.85725 -71.28 
L 573.07255 -71.28 
L 574.287849 -71.28 
L 575.503149 -71.28 
L 576.718449 -71.28 
L 577.933748 -71.28 
L 579.149048 -71.28 
L 580.364348 -71.28 
L 581.579647 -71.28 
L 582.794947 -71.28 
L 584.010247 -71.28 
L 585.225546 -71.28 
L 586.440846 -71.28 
L 587.656146 -71.28 
L 588.871445 -71.28 
L 590.086745 -71.28 
L 591.302044 -71.28 
L 592.517344 -71.28 
L 593.732644 -71.28 
L 594.947943 -71.28 
L 596.163243 -71.28 
L 597.378543 -71.28 
L 598.593842 -71.28 
L 599.809142 -71.28 
L 601.024442 -71.28 
L 602.239741 -71.28 
L 603.455041 -71.28 
L 604.670341 -71.28 
L 605.88564 -71.28 
L 607.10094 -71.28 
L 608.31624 -71.28 
L 609.531539 -71.28 
L 610.746839 -71.28 
L 611.962139 -71.28 
L 613.177438 -71.28 
L 614.392738 -71.28 
L 615.608038 -71.28 
L 616.823337 -71.28 
L 618.038637 -71.28 
L 619.253936 -71.28 
L 620.469236 -71.28 
L 621.684536 -71.28 
L 622.899835 -71.28 
L 624.115135 -71.28 
L 625.330435 -71.28 
L 626.545734 -71.28 
L 627.761034 -71.28 
L 628.976334 -71.28 
L 630.191633 -71.28 
L 631.406933 -71.28 
L 632.622233 -71.28 
L 633.837532 -71.28 
L 635.052832 -71.28 
L 636.268132 -71.28 
L 637.483431 -71.28 
L 637.483431 -72.133157 
L 637.483431 -72.133157 
L 636.268132 -72.321975 
L 635.052832 -72.546914 
L 633.837532 -72.81356 
L 632.622233 -73.128075 
L 631.406933 -73.497204 
L 630.191633 -73.928263 
L 628.976334 -74.429115 
L 627.761034 -75.008125 
L 626.545734 -75.674099 
L 625.330435 -76.4362 
L 624.115135 -77.303845 
L 622.899835 -78.286575 
L 621.684536 -79.393906 
L 620.469236 -80.635158 
L 619.253936 -82.01926 
L 618.038637 -83.554548 
L 616.823337 -85.248536 
L 615.608038 -87.10769 
L 614.392738 -89.137196 
L 613.177438 -91.340728 
L 611.962139 -93.720235 
L 610.746839 -96.275742 
L 609.531539 -99.005177 
L 608.31624 -101.904244 
L 607.10094 -104.966328 
L 605.88564 -108.182457 
L 604.670341 -111.541322 
L 603.455041 -115.029357 
L 602.239741 -118.630886 
L 601.024442 -122.328331 
L 599.809142 -126.102494 
L 598.593842 -129.932892 
L 597.378543 -133.798148 
L 596.163243 -137.676435 
L 594.947943 -141.545945 
L 593.732644 -145.385391 
L 592.517344 -149.17451 
L 591.302044 -152.894558 
L 590.086745 -156.528787 
L 588.871445 -160.062876 
L 587.656146 -163.485306 
L 586.440846 -166.78767 
L 585.225546 -169.96489 
L 584.010247 -173.01535 
L 582.794947 -175.940924 
L 581.579647 -178.746901 
L 580.364348 -181.441808 
L 579.149048 -184.037129 
L 577.933748 -186.546938 
L 576.718449 -188.987442 
L 575.503149 -191.376465 
L 574.287849 -193.732874 
L 573.07255 -196.07598 
L 571.85725 -198.42492 
L 570.64195 -200.798053 
L 569.426651 -203.212379 
L 568.211351 -205.683014 
L 566.996051 -208.222717 
L 565.780752 -210.841508 
L 564.565452 -213.546371 
L 563.350152 -216.341056 
L 562.134853 -219.225985 
L 560.919553 -222.198265 
L 559.704253 -225.251792 
L 558.488954 -228.377461 
L 557.273654 -231.56345 
L 556.058355 -234.795581 
L 554.843055 -238.057731 
L 553.627755 -241.332292 
L 552.412456 -244.600648 
L 551.197156 -247.84366 
L 549.981856 -251.042143 
L 548.766557 -254.177316 
L 547.551257 -257.231221 
L 546.335957 -260.18708 
L 545.120658 -263.029612 
L 543.905358 -265.745275 
L 542.690058 -268.322445 
L 541.474759 -270.751529 
L 540.259459 -273.025015 
L 539.044159 -275.13746 
L 537.82886 -277.085421 
L 536.61356 -278.867339 
L 535.39826 -280.483391 
L 534.182961 -281.935299 
L 532.967661 -283.226127 
L 531.752361 -284.360063 
L 530.537062 -285.342195 
L 529.321762 -286.178287 
L 528.106463 -286.874573 
L 526.891163 -287.437557 
L 525.675863 -287.873835 
L 524.460564 -288.189938 
L 523.245264 -288.392198 
L 522.029964 -288.486636 
L 520.814665 -288.478878 
L 519.599365 -288.374091 
L 518.384065 -288.176939 
L 517.168766 -287.891558 
L 515.953466 -287.521554 
L 514.738166 -287.070008 
L 513.522867 -286.539495 
L 512.307567 -285.93212 
L 511.092267 -285.249549 
L 509.876968 -284.493057 
L 508.661668 -283.663574 
L 507.446368 -282.761732 
L 506.231069 -281.787915 
L 505.015769 -280.742309 
L 503.800469 -279.624942 
L 502.58517 -278.43573 
L 501.36987 -277.17451 
L 500.15457 -275.841071 
L 498.939271 -274.435181 
L 497.723971 -272.956596 
L 496.508672 -271.405077 
L 495.293372 -269.780384 
L 494.078072 -268.08227 
L 492.862773 -266.310468 
L 491.647473 -264.464666 
L 490.432173 -262.544481 
L 489.216874 -260.549425 
L 488.001574 -258.478875 
L 486.786274 -256.332032 
L 485.570975 -254.107895 
L 484.355675 -251.805229 
L 483.140375 -249.422549 
L 481.925076 -246.95811 
L 480.709776 -244.409907 
L 479.494476 -241.775699 
L 478.279177 -239.053039 
L 477.063877 -236.239332 
L 475.848577 -233.331901 
L 474.633278 -230.328081 
L 473.417978 -227.225321 
L 472.202678 -224.021306 
L 470.987379 -220.714088 
L 469.772079 -217.302227 
L 468.55678 -213.784937 
L 467.34148 -210.162227 
L 466.12618 -206.43504 
L 464.910881 -202.605379 
L 463.695581 -198.676421 
L 462.480281 -194.652599 
L 461.264982 -190.539678 
L 460.049682 -186.34478 
L 458.834382 -182.076394 
L 457.619083 -177.744349 
L 456.403783 -173.359747 
L 455.188483 -168.934867 
L 453.973184 -164.483043 
L 452.757884 -160.018502 
L 451.542584 -155.556185 
L 450.327285 -151.111544 
L 449.111985 -146.700326 
L 447.896685 -142.338341 
L 446.681386 -138.041236 
L 445.466086 -133.824264 
L 444.250786 -129.702062 
L 443.035487 -125.688444 
L 441.820187 -121.796214 
L 440.604888 -118.036997 
L 439.389588 -114.421102 
L 438.174288 -110.957409 
L 436.958989 -107.653289 
L 435.743689 -104.514555 
L 434.528389 -101.545442 
L 433.31309 -98.748619 
L 432.09779 -96.125228 
L 430.88249 -93.674947 
L 429.667191 -91.39608 
L 428.451891 -89.285659 
L 427.236591 -87.339566 
L 426.021292 -85.552668 
L 424.805992 -83.918954 
L 423.590692 -82.431679 
L 422.375393 -81.083512 
L 421.160093 -79.866673 
L 419.944793 -78.773074 
L 418.729494 -77.794444 
L 417.514194 -76.92245 
L 416.298894 -76.148803 
L 415.083595 -75.465355 
L 413.868295 -74.864179 
L 412.652995 -74.33764 
L 411.437696 -73.87845 
L 410.222396 -73.479715 
L 409.007097 -73.134963 
L 407.791797 -72.838164 
L 406.576497 -72.583749 
L 405.361198 -72.366602 
L 404.145898 -72.182061 
L 402.930598 -72.025906 
L 401.715299 -71.89434 
L 400.499999 -71.783968 
L 399.284699 -71.691777 
L 398.0694 -71.615103 
L 396.8541 -71.551612 
L 395.6388 -71.499262 
z
" style="stroke: #ff7f0e"/>
    </defs>
    <g clip-path="url(#pa07886f6ab)">
     <use xlink:href="#m29f42bd75f" x="0" y="648" style="fill: #ff7f0e; fill-opacity: 0.25; stroke: #ff7f0e"/>
    </g>
   </g>
   <g id="PolyCollection_3">
    <defs>
     <path id="medcd573036" d="M 102.042823 -71.354238 
L 102.042823 -71.28 
L 104.991142 -71.28 
L 107.939461 -71.28 
L 110.88778 -71.28 
L 113.836099 -71.28 
L 116.784418 -71.28 
L 119.732737 -71.28 
L 122.681056 -71.28 
L 125.629375 -71.28 
L 128.577695 -71.28 
L 131.526014 -71.28 
L 134.474333 -71.28 
L 137.422652 -71.28 
L 140.370971 -71.28 
L 143.31929 -71.28 
L 146.267609 -71.28 
L 149.215928 -71.28 
L 152.164247 -71.28 
L 155.112566 -71.28 
L 158.060885 -71.28 
L 161.009204 -71.28 
L 163.957524 -71.28 
L 166.905843 -71.28 
L 169.854162 -71.28 
L 172.802481 -71.28 
L 175.7508 -71.28 
L 178.699119 -71.28 
L 181.647438 -71.28 
L 184.595757 -71.28 
L 187.544076 -71.28 
L 190.492395 -71.28 
L 193.440714 -71.28 
L 196.389033 -71.28 
L 199.337352 -71.28 
L 202.285672 -71.28 
L 205.233991 -71.28 
L 208.18231 -71.28 
L 211.130629 -71.28 
L 214.078948 -71.28 
L 217.027267 -71.28 
L 219.975586 -71.28 
L 222.923905 -71.28 
L 225.872224 -71.28 
L 228.820543 -71.28 
L 231.768862 -71.28 
L 234.717181 -71.28 
L 237.6655 -71.28 
L 240.61382 -71.28 
L 243.562139 -71.28 
L 246.510458 -71.28 
L 249.458777 -71.28 
L 252.407096 -71.28 
L 255.355415 -71.28 
L 258.303734 -71.28 
L 261.252053 -71.28 
L 264.200372 -71.28 
L 267.148691 -71.28 
L 270.09701 -71.28 
L 273.045329 -71.28 
L 275.993648 -71.28 
L 278.941968 -71.28 
L 281.890287 -71.28 
L 284.838606 -71.28 
L 287.786925 -71.28 
L 290.735244 -71.28 
L 293.683563 -71.28 
L 296.631882 -71.28 
L 299.580201 -71.28 
L 302.52852 -71.28 
L 305.476839 -71.28 
L 308.425158 -71.28 
L 311.373477 -71.28 
L 314.321797 -71.28 
L 317.270116 -71.28 
L 320.218435 -71.28 
L 323.166754 -71.28 
L 326.115073 -71.28 
L 329.063392 -71.28 
L 332.011711 -71.28 
L 334.96003 -71.28 
L 337.908349 -71.28 
L 340.856668 -71.28 
L 343.804987 -71.28 
L 346.753306 -71.28 
L 349.701625 -71.28 
L 352.649945 -71.28 
L 355.598264 -71.28 
L 358.546583 -71.28 
L 361.494902 -71.28 
L 364.443221 -71.28 
L 367.39154 -71.28 
L 370.339859 -71.28 
L 373.288178 -71.28 
L 376.236497 -71.28 
L 379.184816 -71.28 
L 382.133135 -71.28 
L 385.081454 -71.28 
L 388.029773 -71.28 
L 390.978093 -71.28 
L 393.926412 -71.28 
L 396.874731 -71.28 
L 399.82305 -71.28 
L 402.771369 -71.28 
L 405.719688 -71.28 
L 408.668007 -71.28 
L 411.616326 -71.28 
L 414.564645 -71.28 
L 417.512964 -71.28 
L 420.461283 -71.28 
L 423.409602 -71.28 
L 426.357922 -71.28 
L 429.306241 -71.28 
L 432.25456 -71.28 
L 435.202879 -71.28 
L 438.151198 -71.28 
L 441.099517 -71.28 
L 444.047836 -71.28 
L 446.996155 -71.28 
L 449.944474 -71.28 
L 452.892793 -71.28 
L 455.841112 -71.28 
L 458.789431 -71.28 
L 461.73775 -71.28 
L 464.68607 -71.28 
L 467.634389 -71.28 
L 470.582708 -71.28 
L 473.531027 -71.28 
L 476.479346 -71.28 
L 479.427665 -71.28 
L 482.375984 -71.28 
L 485.324303 -71.28 
L 488.272622 -71.28 
L 491.220941 -71.28 
L 494.16926 -71.28 
L 497.117579 -71.28 
L 500.065898 -71.28 
L 503.014218 -71.28 
L 505.962537 -71.28 
L 508.910856 -71.28 
L 511.859175 -71.28 
L 514.807494 -71.28 
L 517.755813 -71.28 
L 520.704132 -71.28 
L 523.652451 -71.28 
L 526.60077 -71.28 
L 529.549089 -71.28 
L 532.497408 -71.28 
L 535.445727 -71.28 
L 538.394046 -71.28 
L 541.342366 -71.28 
L 544.290685 -71.28 
L 547.239004 -71.28 
L 550.187323 -71.28 
L 553.135642 -71.28 
L 556.083961 -71.28 
L 559.03228 -71.28 
L 561.980599 -71.28 
L 564.928918 -71.28 
L 567.877237 -71.28 
L 570.825556 -71.28 
L 573.773875 -71.28 
L 576.722195 -71.28 
L 579.670514 -71.28 
L 582.618833 -71.28 
L 585.567152 -71.28 
L 588.515471 -71.28 
L 591.46379 -71.28 
L 594.412109 -71.28 
L 597.360428 -71.28 
L 600.308747 -71.28 
L 603.257066 -71.28 
L 606.205385 -71.28 
L 609.153704 -71.28 
L 612.102023 -71.28 
L 615.050343 -71.28 
L 617.998662 -71.28 
L 620.946981 -71.28 
L 623.8953 -71.28 
L 626.843619 -71.28 
L 629.791938 -71.28 
L 632.740257 -71.28 
L 635.688576 -71.28 
L 638.636895 -71.28 
L 641.585214 -71.28 
L 644.533533 -71.28 
L 647.481852 -71.28 
L 650.430171 -71.28 
L 653.378491 -71.28 
L 656.32681 -71.28 
L 659.275129 -71.28 
L 662.223448 -71.28 
L 665.171767 -71.28 
L 668.120086 -71.28 
L 671.068405 -71.28 
L 674.016724 -71.28 
L 676.965043 -71.28 
L 679.913362 -71.28 
L 682.861681 -71.28 
L 685.81 -71.28 
L 688.758319 -71.28 
L 688.758319 -71.657032 
L 688.758319 -71.657032 
L 685.81 -71.770235 
L 682.861681 -71.912829 
L 679.913362 -72.091016 
L 676.965043 -72.311908 
L 674.016724 -72.583547 
L 671.068405 -72.914914 
L 668.120086 -73.315888 
L 665.171767 -73.797174 
L 662.223448 -74.370178 
L 659.275129 -75.046834 
L 656.32681 -75.839377 
L 653.378491 -76.760061 
L 650.430171 -77.820827 
L 647.481852 -79.032932 
L 644.533533 -80.406536 
L 641.585214 -81.950285 
L 638.636895 -83.670881 
L 635.688576 -85.572678 
L 632.740257 -87.657323 
L 629.791938 -89.923461 
L 626.843619 -92.366536 
L 623.8953 -94.978693 
L 620.946981 -97.748814 
L 617.998662 -100.662694 
L 615.050343 -103.703353 
L 612.102023 -106.851484 
L 609.153704 -110.086038 
L 606.205385 -113.38489 
L 603.257066 -116.7256 
L 600.308747 -120.086193 
L 597.360428 -123.445939 
L 594.412109 -126.786088 
L 591.46379 -130.090511 
L 588.515471 -133.346208 
L 585.567152 -136.543657 
L 582.618833 -139.676978 
L 579.670514 -142.743897 
L 576.722195 -145.745516 
L 573.773875 -148.685899 
L 570.825556 -151.571504 
L 567.877237 -154.410486 
L 564.928918 -157.211934 
L 561.980599 -159.985075 
L 559.03228 -162.738501 
L 556.083961 -165.479469 
L 553.135642 -168.213319 
L 550.187323 -170.943025 
L 547.239004 -173.66893 
L 544.290685 -176.388643 
L 541.342366 -179.097106 
L 538.394046 -181.786816 
L 535.445727 -184.448163 
L 532.497408 -187.069852 
L 529.549089 -189.639361 
L 526.60077 -192.143403 
L 523.652451 -194.568334 
L 520.704132 -196.900487 
L 517.755813 -199.12641 
L 514.807494 -201.232979 
L 511.859175 -203.207403 
L 508.910856 -205.037126 
L 505.962537 -206.709659 
L 503.014218 -208.212362 
L 500.065898 -209.532227 
L 497.117579 -210.65571 
L 494.16926 -211.568628 
L 491.220941 -212.256191 
L 488.272622 -212.703158 
L 485.324303 -212.894159 
L 482.375984 -212.81417 
L 479.427665 -212.449119 
L 476.479346 -211.786613 
L 473.531027 -210.816726 
L 470.582708 -209.532806 
L 467.634389 -207.93225 
L 464.68607 -206.017172 
L 461.73775 -203.794927 
L 458.789431 -201.27844 
L 455.841112 -198.486286 
L 452.892793 -195.442523 
L 449.944474 -192.176256 
L 446.996155 -188.720944 
L 444.047836 -185.113479 
L 441.099517 -181.393073 
L 438.151198 -177.600021 
L 435.202879 -173.774375 
L 432.25456 -169.954628 
L 429.306241 -166.176455 
L 426.357922 -162.471579 
L 423.409602 -158.866823 
L 420.461283 -155.383394 
L 417.512964 -152.036424 
L 414.564645 -148.834796 
L 411.616326 -145.781247 
L 408.668007 -142.872738 
L 405.719688 -140.101074 
L 402.771369 -137.453713 
L 399.82305 -134.914735 
L 396.874731 -132.465909 
L 393.926412 -130.087804 
L 390.978093 -127.760881 
L 388.029773 -125.466524 
L 385.081454 -123.187951 
L 382.133135 -120.910986 
L 379.184816 -118.624638 
L 376.236497 -116.3215 
L 373.288178 -113.997938 
L 370.339859 -111.654089 
L 367.39154 -109.293676 
L 364.443221 -106.92367 
L 361.494902 -104.553817 
L 358.546583 -102.19607 
L 355.598264 -99.863968 
L 352.649945 -97.571974 
L 349.701625 -95.334838 
L 346.753306 -93.166986 
L 343.804987 -91.081973 
L 340.856668 -89.092023 
L 337.908349 -87.207659 
L 334.96003 -85.437441 
L 332.011711 -83.787806 
L 329.063392 -82.263007 
L 326.115073 -80.865151 
L 323.166754 -79.594309 
L 320.218435 -78.4487 
L 317.270116 -77.424923 
L 314.321797 -76.518227 
L 311.373477 -75.722794 
L 308.425158 -75.032033 
L 305.476839 -74.438864 
L 302.52852 -73.935983 
L 299.580201 -73.516099 
L 296.631882 -73.172136 
L 293.683563 -72.897403 
L 290.735244 -72.685712 
L 287.786925 -72.531469 
L 284.838606 -72.429714 
L 281.890287 -72.37613 
L 278.941968 -72.367015 
L 275.993648 -72.399225 
L 273.045329 -72.470092 
L 270.09701 -72.577324 
L 267.148691 -72.718883 
L 264.200372 -72.892863 
L 261.252053 -73.09736 
L 258.303734 -73.330347 
L 255.355415 -73.589559 
L 252.407096 -73.872385 
L 249.458777 -74.175795 
L 246.510458 -74.496273 
L 243.562139 -74.829796 
L 240.61382 -75.171829 
L 237.6655 -75.517363 
L 234.717181 -75.860978 
L 231.768862 -76.196943 
L 228.820543 -76.519337 
L 225.872224 -76.822197 
L 222.923905 -77.099683 
L 219.975586 -77.346244 
L 217.027267 -77.5568 
L 214.078948 -77.7269 
L 211.130629 -77.852876 
L 208.18231 -77.931971 
L 205.233991 -77.962433 
L 202.285672 -77.94358 
L 199.337352 -77.875822 
L 196.389033 -77.760645 
L 193.440714 -77.600558 
L 190.492395 -77.398998 
L 187.544076 -77.16021 
L 184.595757 -76.889097 
L 181.647438 -76.591053 
L 178.699119 -76.271785 
L 175.7508 -75.937133 
L 172.802481 -75.592895 
L 169.854162 -75.244667 
L 166.905843 -74.897695 
L 163.957524 -74.556761 
L 161.009204 -74.226084 
L 158.060885 -73.909256 
L 155.112566 -73.609207 
L 152.164247 -73.328193 
L 149.215928 -73.067809 
L 146.267609 -72.829027 
L 143.31929 -72.612245 
L 140.370971 -72.417358 
L 137.422652 -72.243823 
L 134.474333 -72.090746 
L 131.526014 -71.956956 
L 128.577695 -71.841078 
L 125.629375 -71.741608 
L 122.681056 -71.656974 
L 119.732737 -71.585588 
L 116.784418 -71.525895 
L 113.836099 -71.476404 
L 110.88778 -71.435717 
L 107.939461 -71.40255 
L 104.991142 -71.375736 
L 102.042823 -71.354238 
z
" style="stroke: #2ca02c"/>
    </defs>
    <g clip-path="url(#pa07886f6ab)">
     <use xlink:href="#medcd573036" x="0" y="648" style="fill: #2ca02c; fill-opacity: 0.25; stroke: #2ca02c"/>
    </g>
   </g>
   <g id="matplotlib.axis_1">
    <g id="xtick_1">
     <g id="line2d_1">
      <defs>
       <path id="m170f495af8" d="M 0 0 
L 0 3.5 
" style="stroke: #000000; stroke-width: 0.8"/>
      </defs>
      <g>
       <use xlink:href="#m170f495af8" x="81" y="576.72" style="stroke: #000000; stroke-width: 0.8"/>
      </g>
     </g>
     <g id="text_1">
      <!-- 0.0 -->
      <g transform="translate(66.687187 597.397187)scale(0.18 -0.18)">
       <defs>
        <path id="DejaVuSans-30" d="M 2034 4250 
Q 1547 4250 1301 3770 
Q 1056 3291 1056 2328 
Q 1056 1369 1301 889 
Q 1547 409 2034 409 
Q 2525 409 2770 889 
Q 3016 1369 3016 2328 
Q 3016 3291 2770 3770 
Q 2525 4250 2034 4250 
z
M 2034 4750 
Q 2819 4750 3233 4129 
Q 3647 3509 3647 2328 
Q 3647 1150 3233 529 
Q 2819 -91 2034 -91 
Q 1250 -91 836 529 
Q 422 1150 422 2328 
Q 422 3509 836 4129 
Q 1250 4750 2034 4750 
z
" transform="scale(0.015625)"/>
        <path id="DejaVuSans-2e" d="M 684 794 
L 1344 794 
L 1344 0 
L 684 0 
L 684 794 
z
" transform="scale(0.015625)"/>
       </defs>
       <use xlink:href="#DejaVuSans-30"/>
       <use xlink:href="#DejaVuSans-2e" x="63.623047"/>
       <use xlink:href="#DejaVuSans-30" x="95.410156"/>
      </g>
     </g>
    </g>
    <g id="xtick_2">
     <g id="line2d_2">
      <g>
       <use xlink:href="#m170f495af8" x="332.1" y="576.72" style="stroke: #000000; stroke-width: 0.8"/>
      </g>
     </g>
     <g id="text_2">
      <!-- 0.5 -->
      <g transform="translate(317.787188 597.397187)scale(0.18 -0.18)">
       <defs>
        <path id="DejaVuSans-35" d="M 691 4666 
L 3169 4666 
L 3169 4134 
L 1269 4134 
L 1269 2991 
Q 1406 3038 1543 3061 
Q 1681 3084 1819 3084 
Q 2600 3084 3056 2656 
Q 3513 2228 3513 1497 
Q 3513 744 3044 326 
Q 2575 -91 1722 -91 
Q 1428 -91 1123 -41 
Q 819 9 494 109 
L 494 744 
Q 775 591 1075 516 
Q 1375 441 1709 441 
Q 2250 441 2565 725 
Q 2881 1009 2881 1497 
Q 2881 1984 2565 2268 
Q 2250 2553 1709 2553 
Q 1456 2553 1204 2497 
Q 953 2441 691 2322 
L 691 4666 
z
" transform="scale(0.015625)"/>
       </defs>
       <use xlink:href="#DejaVuSans-30"/>
       <use xlink:href="#DejaVuSans-2e" x="63.623047"/>
       <use xlink:href="#DejaVuSans-35" x="95.410156"/>
      </g>
     </g>
    </g>
    <g id="xtick_3">
     <g id="line2d_3">
      <g>
       <use xlink:href="#m170f495af8" x="583.2" y="576.72" style="stroke: #000000; stroke-width: 0.8"/>
      </g>
     </g>
     <g id="text_3">
      <!-- 1.0 -->
      <g transform="translate(568.887188 597.397187)scale(0.18 -0.18)">
       <defs>
        <path id="DejaVuSans-31" d="M 794 531 
L 1825 531 
L 1825 4091 
L 703 3866 
L 703 4441 
L 1819 4666 
L 2450 4666 
L 2450 531 
L 3481 531 
L 3481 0 
L 794 0 
L 794 531 
z
" transform="scale(0.015625)"/>
       </defs>
       <use xlink:href="#DejaVuSans-31"/>
       <use xlink:href="#DejaVuSans-2e" x="63.623047"/>
       <use xlink:href="#DejaVuSans-30" x="95.410156"/>
      </g>
     </g>
    </g>
    <g id="text_4">
     <!-- Attention Value -->
     <g transform="translate(239.949375 623.376875)scale(0.24 -0.24)">
      <defs>
       <path id="DejaVuSans-41" d="M 2188 4044 
L 1331 1722 
L 3047 1722 
L 2188 4044 
z
M 1831 4666 
L 2547 4666 
L 4325 0 
L 3669 0 
L 3244 1197 
L 1141 1197 
L 716 0 
L 50 0 
L 1831 4666 
z
" transform="scale(0.015625)"/>
       <path id="DejaVuSans-74" d="M 1172 4494 
L 1172 3500 
L 2356 3500 
L 2356 3053 
L 1172 3053 
L 1172 1153 
Q 1172 725 1289 603 
Q 1406 481 1766 481 
L 2356 481 
L 2356 0 
L 1766 0 
Q 1100 0 847 248 
Q 594 497 594 1153 
L 594 3053 
L 172 3053 
L 172 3500 
L 594 3500 
L 594 4494 
L 1172 4494 
z
" transform="scale(0.015625)"/>
       <path id="DejaVuSans-65" d="M 3597 1894 
L 3597 1613 
L 953 1613 
Q 991 1019 1311 708 
Q 1631 397 2203 397 
Q 2534 397 2845 478 
Q 3156 559 3463 722 
L 3463 178 
Q 3153 47 2828 -22 
Q 2503 -91 2169 -91 
Q 1331 -91 842 396 
Q 353 884 353 1716 
Q 353 2575 817 3079 
Q 1281 3584 2069 3584 
Q 2775 3584 3186 3129 
Q 3597 2675 3597 1894 
z
M 3022 2063 
Q 3016 2534 2758 2815 
Q 2500 3097 2075 3097 
Q 1594 3097 1305 2825 
Q 1016 2553 972 2059 
L 3022 2063 
z
" transform="scale(0.015625)"/>
       <path id="DejaVuSans-6e" d="M 3513 2113 
L 3513 0 
L 2938 0 
L 2938 2094 
Q 2938 2591 2744 2837 
Q 2550 3084 2163 3084 
Q 1697 3084 1428 2787 
Q 1159 2491 1159 1978 
L 1159 0 
L 581 0 
L 581 3500 
L 1159 3500 
L 1159 2956 
Q 1366 3272 1645 3428 
Q 1925 3584 2291 3584 
Q 2894 3584 3203 3211 
Q 3513 2838 3513 2113 
z
" transform="scale(0.015625)"/>
       <path id="DejaVuSans-69" d="M 603 3500 
L 1178 3500 
L 1178 0 
L 603 0 
L 603 3500 
z
M 603 4863 
L 1178 4863 
L 1178 4134 
L 603 4134 
L 603 4863 
z
" transform="scale(0.015625)"/>
       <path id="DejaVuSans-6f" d="M 1959 3097 
Q 1497 3097 1228 2736 
Q 959 2375 959 1747 
Q 959 1119 1226 758 
Q 1494 397 1959 397 
Q 2419 397 2687 759 
Q 2956 1122 2956 1747 
Q 2956 2369 2687 2733 
Q 2419 3097 1959 3097 
z
M 1959 3584 
Q 2709 3584 3137 3096 
Q 3566 2609 3566 1747 
Q 3566 888 3137 398 
Q 2709 -91 1959 -91 
Q 1206 -91 779 398 
Q 353 888 353 1747 
Q 353 2609 779 3096 
Q 1206 3584 1959 3584 
z
" transform="scale(0.015625)"/>
       <path id="DejaVuSans-20" transform="scale(0.015625)"/>
       <path id="DejaVuSans-56" d="M 1831 0 
L 50 4666 
L 709 4666 
L 2188 738 
L 3669 4666 
L 4325 4666 
L 2547 0 
L 1831 0 
z
" transform="scale(0.015625)"/>
       <path id="DejaVuSans-61" d="M 2194 1759 
Q 1497 1759 1228 1600 
Q 959 1441 959 1056 
Q 959 750 1161 570 
Q 1363 391 1709 391 
Q 2188 391 2477 730 
Q 2766 1069 2766 1631 
L 2766 1759 
L 2194 1759 
z
M 3341 1997 
L 3341 0 
L 2766 0 
L 2766 531 
Q 2569 213 2275 61 
Q 1981 -91 1556 -91 
Q 1019 -91 701 211 
Q 384 513 384 1019 
Q 384 1609 779 1909 
Q 1175 2209 1959 2209 
L 2766 2209 
L 2766 2266 
Q 2766 2663 2505 2880 
Q 2244 3097 1772 3097 
Q 1472 3097 1187 3025 
Q 903 2953 641 2809 
L 641 3341 
Q 956 3463 1253 3523 
Q 1550 3584 1831 3584 
Q 2591 3584 2966 3190 
Q 3341 2797 3341 1997 
z
" transform="scale(0.015625)"/>
       <path id="DejaVuSans-6c" d="M 603 4863 
L 1178 4863 
L 1178 0 
L 603 0 
L 603 4863 
z
" transform="scale(0.015625)"/>
       <path id="DejaVuSans-75" d="M 544 1381 
L 544 3500 
L 1119 3500 
L 1119 1403 
Q 1119 906 1312 657 
Q 1506 409 1894 409 
Q 2359 409 2629 706 
Q 2900 1003 2900 1516 
L 2900 3500 
L 3475 3500 
L 3475 0 
L 2900 0 
L 2900 538 
Q 2691 219 2414 64 
Q 2138 -91 1772 -91 
Q 1169 -91 856 284 
Q 544 659 544 1381 
z
M 1991 3584 
L 1991 3584 
z
" transform="scale(0.015625)"/>
      </defs>
      <use xlink:href="#DejaVuSans-41"/>
      <use xlink:href="#DejaVuSans-74" x="66.658203"/>
      <use xlink:href="#DejaVuSans-74" x="105.867188"/>
      <use xlink:href="#DejaVuSans-65" x="145.076172"/>
      <use xlink:href="#DejaVuSans-6e" x="206.599609"/>
      <use xlink:href="#DejaVuSans-74" x="269.978516"/>
      <use xlink:href="#DejaVuSans-69" x="309.1875"/>
      <use xlink:href="#DejaVuSans-6f" x="336.970703"/>
      <use xlink:href="#DejaVuSans-6e" x="398.152344"/>
      <use xlink:href="#DejaVuSans-20" x="461.53125"/>
      <use xlink:href="#DejaVuSans-56" x="493.318359"/>
      <use xlink:href="#DejaVuSans-61" x="553.976562"/>
      <use xlink:href="#DejaVuSans-6c" x="615.255859"/>
      <use xlink:href="#DejaVuSans-75" x="643.039062"/>
      <use xlink:href="#DejaVuSans-65" x="706.417969"/>
     </g>
    </g>
   </g>
   <g id="matplotlib.axis_2">
    <g id="ytick_1">
     <g id="line2d_4">
      <defs>
       <path id="m9d6e2e2ddf" d="M 0 0 
L -3.5 0 
" style="stroke: #000000; stroke-width: 0.8"/>
      </defs>
      <g>
       <use xlink:href="#m9d6e2e2ddf" x="81" y="576.72" style="stroke: #000000; stroke-width: 0.8"/>
      </g>
     </g>
     <g id="text_5">
      <!-- 0 -->
      <g transform="translate(62.5475 583.558594)scale(0.18 -0.18)">
       <use xlink:href="#DejaVuSans-30"/>
      </g>
     </g>
    </g>
    <g id="ytick_2">
     <g id="line2d_5">
      <g>
       <use xlink:href="#m9d6e2e2ddf" x="81" y="473.811526" style="stroke: #000000; stroke-width: 0.8"/>
      </g>
     </g>
     <g id="text_6">
      <!-- 2 -->
      <g transform="translate(62.5475 480.650119)scale(0.18 -0.18)">
       <defs>
        <path id="DejaVuSans-32" d="M 1228 531 
L 3431 531 
L 3431 0 
L 469 0 
L 469 531 
Q 828 903 1448 1529 
Q 2069 2156 2228 2338 
Q 2531 2678 2651 2914 
Q 2772 3150 2772 3378 
Q 2772 3750 2511 3984 
Q 2250 4219 1831 4219 
Q 1534 4219 1204 4116 
Q 875 4013 500 3803 
L 500 4441 
Q 881 4594 1212 4672 
Q 1544 4750 1819 4750 
Q 2544 4750 2975 4387 
Q 3406 4025 3406 3419 
Q 3406 3131 3298 2873 
Q 3191 2616 2906 2266 
Q 2828 2175 2409 1742 
Q 1991 1309 1228 531 
z
" transform="scale(0.015625)"/>
       </defs>
       <use xlink:href="#DejaVuSans-32"/>
      </g>
     </g>
    </g>
    <g id="ytick_3">
     <g id="line2d_6">
      <g>
       <use xlink:href="#m9d6e2e2ddf" x="81" y="370.903051" style="stroke: #000000; stroke-width: 0.8"/>
      </g>
     </g>
     <g id="text_7">
      <!-- 4 -->
      <g transform="translate(62.5475 377.741645)scale(0.18 -0.18)">
       <defs>
        <path id="DejaVuSans-34" d="M 2419 4116 
L 825 1625 
L 2419 1625 
L 2419 4116 
z
M 2253 4666 
L 3047 4666 
L 3047 1625 
L 3713 1625 
L 3713 1100 
L 3047 1100 
L 3047 0 
L 2419 0 
L 2419 1100 
L 313 1100 
L 313 1709 
L 2253 4666 
z
" transform="scale(0.015625)"/>
       </defs>
       <use xlink:href="#DejaVuSans-34"/>
      </g>
     </g>
    </g>
    <g id="ytick_4">
     <g id="line2d_7">
      <g>
       <use xlink:href="#m9d6e2e2ddf" x="81" y="267.994577" style="stroke: #000000; stroke-width: 0.8"/>
      </g>
     </g>
     <g id="text_8">
      <!-- 6 -->
      <g transform="translate(62.5475 274.833171)scale(0.18 -0.18)">
       <defs>
        <path id="DejaVuSans-36" d="M 2113 2584 
Q 1688 2584 1439 2293 
Q 1191 2003 1191 1497 
Q 1191 994 1439 701 
Q 1688 409 2113 409 
Q 2538 409 2786 701 
Q 3034 994 3034 1497 
Q 3034 2003 2786 2293 
Q 2538 2584 2113 2584 
z
M 3366 4563 
L 3366 3988 
Q 3128 4100 2886 4159 
Q 2644 4219 2406 4219 
Q 1781 4219 1451 3797 
Q 1122 3375 1075 2522 
Q 1259 2794 1537 2939 
Q 1816 3084 2150 3084 
Q 2853 3084 3261 2657 
Q 3669 2231 3669 1497 
Q 3669 778 3244 343 
Q 2819 -91 2113 -91 
Q 1303 -91 875 529 
Q 447 1150 447 2328 
Q 447 3434 972 4092 
Q 1497 4750 2381 4750 
Q 2619 4750 2861 4703 
Q 3103 4656 3366 4563 
z
" transform="scale(0.015625)"/>
       </defs>
       <use xlink:href="#DejaVuSans-36"/>
      </g>
     </g>
    </g>
    <g id="ytick_5">
     <g id="line2d_8">
      <g>
       <use xlink:href="#m9d6e2e2ddf" x="81" y="165.086103" style="stroke: #000000; stroke-width: 0.8"/>
      </g>
     </g>
     <g id="text_9">
      <!-- 8 -->
      <g transform="translate(62.5475 171.924696)scale(0.18 -0.18)">
       <defs>
        <path id="DejaVuSans-38" d="M 2034 2216 
Q 1584 2216 1326 1975 
Q 1069 1734 1069 1313 
Q 1069 891 1326 650 
Q 1584 409 2034 409 
Q 2484 409 2743 651 
Q 3003 894 3003 1313 
Q 3003 1734 2745 1975 
Q 2488 2216 2034 2216 
z
M 1403 2484 
Q 997 2584 770 2862 
Q 544 3141 544 3541 
Q 544 4100 942 4425 
Q 1341 4750 2034 4750 
Q 2731 4750 3128 4425 
Q 3525 4100 3525 3541 
Q 3525 3141 3298 2862 
Q 3072 2584 2669 2484 
Q 3125 2378 3379 2068 
Q 3634 1759 3634 1313 
Q 3634 634 3220 271 
Q 2806 -91 2034 -91 
Q 1263 -91 848 271 
Q 434 634 434 1313 
Q 434 1759 690 2068 
Q 947 2378 1403 2484 
z
M 1172 3481 
Q 1172 3119 1398 2916 
Q 1625 2713 2034 2713 
Q 2441 2713 2670 2916 
Q 2900 3119 2900 3481 
Q 2900 3844 2670 4047 
Q 2441 4250 2034 4250 
Q 1625 4250 1398 4047 
Q 1172 3844 1172 3481 
z
" transform="scale(0.015625)"/>
       </defs>
       <use xlink:href="#DejaVuSans-38"/>
      </g>
     </g>
    </g>
    <g id="text_10">
     <!-- Probability Denisity Function -->
     <g transform="translate(53.55625 498.286875)rotate(-90)scale(0.24 -0.24)">
      <defs>
       <path id="DejaVuSans-50" d="M 1259 4147 
L 1259 2394 
L 2053 2394 
Q 2494 2394 2734 2622 
Q 2975 2850 2975 3272 
Q 2975 3691 2734 3919 
Q 2494 4147 2053 4147 
L 1259 4147 
z
M 628 4666 
L 2053 4666 
Q 2838 4666 3239 4311 
Q 3641 3956 3641 3272 
Q 3641 2581 3239 2228 
Q 2838 1875 2053 1875 
L 1259 1875 
L 1259 0 
L 628 0 
L 628 4666 
z
" transform="scale(0.015625)"/>
       <path id="DejaVuSans-72" d="M 2631 2963 
Q 2534 3019 2420 3045 
Q 2306 3072 2169 3072 
Q 1681 3072 1420 2755 
Q 1159 2438 1159 1844 
L 1159 0 
L 581 0 
L 581 3500 
L 1159 3500 
L 1159 2956 
Q 1341 3275 1631 3429 
Q 1922 3584 2338 3584 
Q 2397 3584 2469 3576 
Q 2541 3569 2628 3553 
L 2631 2963 
z
" transform="scale(0.015625)"/>
       <path id="DejaVuSans-62" d="M 3116 1747 
Q 3116 2381 2855 2742 
Q 2594 3103 2138 3103 
Q 1681 3103 1420 2742 
Q 1159 2381 1159 1747 
Q 1159 1113 1420 752 
Q 1681 391 2138 391 
Q 2594 391 2855 752 
Q 3116 1113 3116 1747 
z
M 1159 2969 
Q 1341 3281 1617 3432 
Q 1894 3584 2278 3584 
Q 2916 3584 3314 3078 
Q 3713 2572 3713 1747 
Q 3713 922 3314 415 
Q 2916 -91 2278 -91 
Q 1894 -91 1617 61 
Q 1341 213 1159 525 
L 1159 0 
L 581 0 
L 581 4863 
L 1159 4863 
L 1159 2969 
z
" transform="scale(0.015625)"/>
       <path id="DejaVuSans-79" d="M 2059 -325 
Q 1816 -950 1584 -1140 
Q 1353 -1331 966 -1331 
L 506 -1331 
L 506 -850 
L 844 -850 
Q 1081 -850 1212 -737 
Q 1344 -625 1503 -206 
L 1606 56 
L 191 3500 
L 800 3500 
L 1894 763 
L 2988 3500 
L 3597 3500 
L 2059 -325 
z
" transform="scale(0.015625)"/>
       <path id="DejaVuSans-44" d="M 1259 4147 
L 1259 519 
L 2022 519 
Q 2988 519 3436 956 
Q 3884 1394 3884 2338 
Q 3884 3275 3436 3711 
Q 2988 4147 2022 4147 
L 1259 4147 
z
M 628 4666 
L 1925 4666 
Q 3281 4666 3915 4102 
Q 4550 3538 4550 2338 
Q 4550 1131 3912 565 
Q 3275 0 1925 0 
L 628 0 
L 628 4666 
z
" transform="scale(0.015625)"/>
       <path id="DejaVuSans-73" d="M 2834 3397 
L 2834 2853 
Q 2591 2978 2328 3040 
Q 2066 3103 1784 3103 
Q 1356 3103 1142 2972 
Q 928 2841 928 2578 
Q 928 2378 1081 2264 
Q 1234 2150 1697 2047 
L 1894 2003 
Q 2506 1872 2764 1633 
Q 3022 1394 3022 966 
Q 3022 478 2636 193 
Q 2250 -91 1575 -91 
Q 1294 -91 989 -36 
Q 684 19 347 128 
L 347 722 
Q 666 556 975 473 
Q 1284 391 1588 391 
Q 1994 391 2212 530 
Q 2431 669 2431 922 
Q 2431 1156 2273 1281 
Q 2116 1406 1581 1522 
L 1381 1569 
Q 847 1681 609 1914 
Q 372 2147 372 2553 
Q 372 3047 722 3315 
Q 1072 3584 1716 3584 
Q 2034 3584 2315 3537 
Q 2597 3491 2834 3397 
z
" transform="scale(0.015625)"/>
       <path id="DejaVuSans-46" d="M 628 4666 
L 3309 4666 
L 3309 4134 
L 1259 4134 
L 1259 2759 
L 3109 2759 
L 3109 2228 
L 1259 2228 
L 1259 0 
L 628 0 
L 628 4666 
z
" transform="scale(0.015625)"/>
       <path id="DejaVuSans-63" d="M 3122 3366 
L 3122 2828 
Q 2878 2963 2633 3030 
Q 2388 3097 2138 3097 
Q 1578 3097 1268 2742 
Q 959 2388 959 1747 
Q 959 1106 1268 751 
Q 1578 397 2138 397 
Q 2388 397 2633 464 
Q 2878 531 3122 666 
L 3122 134 
Q 2881 22 2623 -34 
Q 2366 -91 2075 -91 
Q 1284 -91 818 406 
Q 353 903 353 1747 
Q 353 2603 823 3093 
Q 1294 3584 2113 3584 
Q 2378 3584 2631 3529 
Q 2884 3475 3122 3366 
z
" transform="scale(0.015625)"/>
      </defs>
      <use xlink:href="#DejaVuSans-50"/>
      <use xlink:href="#DejaVuSans-72" x="58.552734"/>
      <use xlink:href="#DejaVuSans-6f" x="97.416016"/>
      <use xlink:href="#DejaVuSans-62" x="158.597656"/>
      <use xlink:href="#DejaVuSans-61" x="222.074219"/>
      <use xlink:href="#DejaVuSans-62" x="283.353516"/>
      <use xlink:href="#DejaVuSans-69" x="346.830078"/>
      <use xlink:href="#DejaVuSans-6c" x="374.613281"/>
      <use xlink:href="#DejaVuSans-69" x="402.396484"/>
      <use xlink:href="#DejaVuSans-74" x="430.179688"/>
      <use xlink:href="#DejaVuSans-79" x="469.388672"/>
      <use xlink:href="#DejaVuSans-20" x="528.568359"/>
      <use xlink:href="#DejaVuSans-44" x="560.355469"/>
      <use xlink:href="#DejaVuSans-65" x="637.357422"/>
      <use xlink:href="#DejaVuSans-6e" x="698.880859"/>
      <use xlink:href="#DejaVuSans-69" x="762.259766"/>
      <use xlink:href="#DejaVuSans-73" x="790.042969"/>
      <use xlink:href="#DejaVuSans-69" x="842.142578"/>
      <use xlink:href="#DejaVuSans-74" x="869.925781"/>
      <use xlink:href="#DejaVuSans-79" x="909.134766"/>
      <use xlink:href="#DejaVuSans-20" x="968.314453"/>
      <use xlink:href="#DejaVuSans-46" x="1000.101562"/>
      <use xlink:href="#DejaVuSans-75" x="1052.121094"/>
      <use xlink:href="#DejaVuSans-6e" x="1115.5"/>
      <use xlink:href="#DejaVuSans-63" x="1178.878906"/>
      <use xlink:href="#DejaVuSans-74" x="1233.859375"/>
      <use xlink:href="#DejaVuSans-69" x="1273.068359"/>
      <use xlink:href="#DejaVuSans-6f" x="1300.851562"/>
      <use xlink:href="#DejaVuSans-6e" x="1362.033203"/>
     </g>
    </g>
   </g>
   <g id="patch_3">
    <path d="M 81 576.72 
L 81 77.76 
" style="fill: none; stroke: #000000; stroke-width: 0.8; stroke-linejoin: miter; stroke-linecap: square"/>
   </g>
   <g id="patch_4">
    <path d="M 583.2 576.72 
L 583.2 77.76 
" style="fill: none; stroke: #000000; stroke-width: 0.8; stroke-linejoin: miter; stroke-linecap: square"/>
   </g>
   <g id="patch_5">
    <path d="M 81 576.72 
L 583.2 576.72 
" style="fill: none; stroke: #000000; stroke-width: 0.8; stroke-linejoin: miter; stroke-linecap: square"/>
   </g>
   <g id="patch_6">
    <path d="M 81 77.76 
L 583.2 77.76 
" style="fill: none; stroke: #000000; stroke-width: 0.8; stroke-linejoin: miter; stroke-linecap: square"/>
   </g>
   <g id="legend_1">
    <g id="patch_7">
     <path d="M 128.21 181.82875 
L 217.66 181.82875 
Q 221.66 181.82875 221.66 177.82875 
L 221.66 91.76 
Q 221.66 87.76 217.66 87.76 
L 128.21 87.76 
Q 124.21 87.76 124.21 91.76 
L 124.21 177.82875 
Q 124.21 181.82875 128.21 181.82875 
z
" style="fill: #ffffff; opacity: 0.8; stroke: #cccccc; stroke-linejoin: miter"/>
    </g>
    <g id="patch_8">
     <path d="M 132.21 110.956875 
L 172.21 110.956875 
L 172.21 96.956875 
L 132.21 96.956875 
z
" style="fill: #1f77b4; fill-opacity: 0.25; stroke: #1f77b4; stroke-linejoin: miter"/>
    </g>
    <g id="text_11">
     <!-- 9 -->
     <g transform="translate(188.21 110.956875)scale(0.2 -0.2)">
      <defs>
       <path id="DejaVuSans-39" d="M 703 97 
L 703 672 
Q 941 559 1184 500 
Q 1428 441 1663 441 
Q 2288 441 2617 861 
Q 2947 1281 2994 2138 
Q 2813 1869 2534 1725 
Q 2256 1581 1919 1581 
Q 1219 1581 811 2004 
Q 403 2428 403 3163 
Q 403 3881 828 4315 
Q 1253 4750 1959 4750 
Q 2769 4750 3195 4129 
Q 3622 3509 3622 2328 
Q 3622 1225 3098 567 
Q 2575 -91 1691 -91 
Q 1453 -91 1209 -44 
Q 966 3 703 97 
z
M 1959 2075 
Q 2384 2075 2632 2365 
Q 2881 2656 2881 3163 
Q 2881 3666 2632 3958 
Q 2384 4250 1959 4250 
Q 1534 4250 1286 3958 
Q 1038 3666 1038 3163 
Q 1038 2656 1286 2365 
Q 1534 2075 1959 2075 
z
" transform="scale(0.015625)"/>
      </defs>
      <use xlink:href="#DejaVuSans-39"/>
     </g>
    </g>
    <g id="patch_9">
     <path d="M 132.21 140.313125 
L 172.21 140.313125 
L 172.21 126.313125 
L 132.21 126.313125 
z
" style="fill: #ff7f0e; fill-opacity: 0.25; stroke: #ff7f0e; stroke-linejoin: miter"/>
    </g>
    <g id="text_12">
     <!-- 10 -->
     <g transform="translate(188.21 140.313125)scale(0.2 -0.2)">
      <use xlink:href="#DejaVuSans-31"/>
      <use xlink:href="#DejaVuSans-30" x="63.623047"/>
     </g>
    </g>
    <g id="patch_10">
     <path d="M 132.21 169.669375 
L 172.21 169.669375 
L 172.21 155.669375 
L 132.21 155.669375 
z
" style="fill: #2ca02c; fill-opacity: 0.25; stroke: #2ca02c; stroke-linejoin: miter"/>
    </g>
    <g id="text_13">
     <!-- 11 -->
     <g transform="translate(188.21 169.669375)scale(0.2 -0.2)">
      <use xlink:href="#DejaVuSans-31"/>
      <use xlink:href="#DejaVuSans-31" x="63.623047"/>
     </g>
    </g>
   </g>
  </g>
 </g>
 <defs>
  <clipPath id="pa07886f6ab">
   <rect x="81" y="77.76" width="502.2" height="498.96"/>
  </clipPath>
 </defs>
</svg>
